<svg class="main-svg" xmlns="http://www.w3.org/2000/svg" xmlns:xlink="http://www.w3.org/1999/xlink" width="800" height="1600" style="" viewBox="0 0 800 1600"><rect x="0" y="0" width="800" height="1600" style="fill: rgb(255, 255, 255); fill-opacity: 1;"/><defs id="defs-2a430c"><g class="clips"><clipPath id="clip2a430cxyplot" class="plotclip"><rect width="640" height="1420"/></clipPath><clipPath class="axesclip" id="clip2a430cx"><rect x="80" y="0" width="640" height="1600"/></clipPath><clipPath class="axesclip" id="clip2a430cy"><rect x="0" y="100" width="800" height="1420"/></clipPath><clipPath class="axesclip" id="clip2a430cxy"><rect x="80" y="100" width="640" height="1420"/></clipPath></g><g class="gradients"/><g class="patterns"/></defs><g class="bglayer"/><g class="layer-below"><g class="imagelayer"/><g class="shapelayer"/></g><g class="cartesianlayer"><g class="subplot xy"><g class="layer-subplot"><g class="shapelayer"/><g class="imagelayer"/></g><g class="minor-gridlayer"><g class="x"/><g class="y"><path class="ygrid crisp" transform="translate(0,1449)" d="M80,0h640" style="stroke: rgb(249, 249, 249); stroke-opacity: 1; stroke-width: 1px;"/><path class="ygrid crisp" transform="translate(0,1389.45)" d="M80,0h640" style="stroke: rgb(249, 249, 249); stroke-opacity: 1; stroke-width: 1px;"/><path class="ygrid crisp" transform="translate(0,1347.2)" d="M80,0h640" style="stroke: rgb(249, 249, 249); stroke-opacity: 1; stroke-width: 1px;"/><path class="ygrid crisp" transform="translate(0,1314.42)" d="M80,0h640" style="stroke: rgb(249, 249, 249); stroke-opacity: 1; stroke-width: 1px;"/><path class="ygrid crisp" transform="translate(0,1287.65)" d="M80,0h640" style="stroke: rgb(249, 249, 249); stroke-opacity: 1; stroke-width: 1px;"/><path class="ygrid crisp" transform="translate(0,1265.01)" d="M80,0h640" style="stroke: rgb(249, 249, 249); stroke-opacity: 1; stroke-width: 1px;"/><path class="ygrid crisp" transform="translate(0,1245.4)" d="M80,0h640" style="stroke: rgb(249, 249, 249); stroke-opacity: 1; stroke-width: 1px;"/><path class="ygrid crisp" transform="translate(0,1228.1)" d="M80,0h640" style="stroke: rgb(249, 249, 249); stroke-opacity: 1; stroke-width: 1px;"/><path class="ygrid crisp" transform="translate(0,1212.62)" d="M80,0h640" style="stroke: rgb(249, 249, 249); stroke-opacity: 1; stroke-width: 1px;"/><path class="ygrid crisp" transform="translate(0,1198.62)" d="M80,0h640" style="stroke: rgb(249, 249, 249); stroke-opacity: 1; stroke-width: 1px;"/><path class="ygrid crisp" transform="translate(0,1185.84)" d="M80,0h640" style="stroke: rgb(249, 249, 249); stroke-opacity: 1; stroke-width: 1px;"/><path class="ygrid crisp" transform="translate(0,1174.09)" d="M80,0h640" style="stroke: rgb(249, 249, 249); stroke-opacity: 1; stroke-width: 1px;"/><path class="ygrid crisp" transform="translate(0,1163.2)" d="M80,0h640" style="stroke: rgb(249, 249, 249); stroke-opacity: 1; stroke-width: 1px;"/><path class="ygrid crisp" transform="translate(0,1153.07)" d="M80,0h640" style="stroke: rgb(249, 249, 249); stroke-opacity: 1; stroke-width: 1px;"/><path class="ygrid crisp" transform="translate(0,1143.59)" d="M80,0h640" style="stroke: rgb(249, 249, 249); stroke-opacity: 1; stroke-width: 1px;"/><path class="ygrid crisp" transform="translate(0,1134.69)" d="M80,0h640" style="stroke: rgb(249, 249, 249); stroke-opacity: 1; stroke-width: 1px;"/><path class="ygrid crisp" transform="translate(0,1126.29)" d="M80,0h640" style="stroke: rgb(249, 249, 249); stroke-opacity: 1; stroke-width: 1px;"/><path class="ygrid crisp" transform="translate(0,1118.35)" d="M80,0h640" style="stroke: rgb(249, 249, 249); stroke-opacity: 1; stroke-width: 1px;"/><path class="ygrid crisp" transform="translate(0,1110.8200000000002)" d="M80,0h640" style="stroke: rgb(249, 249, 249); stroke-opacity: 1; stroke-width: 1px;"/><path class="ygrid crisp" transform="translate(0,1103.65)" d="M80,0h640" style="stroke: rgb(249, 249, 249); stroke-opacity: 1; stroke-width: 1px;"/><path class="ygrid crisp" transform="translate(0,1096.8200000000002)" d="M80,0h640" style="stroke: rgb(249, 249, 249); stroke-opacity: 1; stroke-width: 1px;"/><path class="ygrid crisp" transform="translate(0,1090.29)" d="M80,0h640" style="stroke: rgb(249, 249, 249); stroke-opacity: 1; stroke-width: 1px;"/><path class="ygrid crisp" transform="translate(0,1084.04)" d="M80,0h640" style="stroke: rgb(249, 249, 249); stroke-opacity: 1; stroke-width: 1px;"/><path class="ygrid crisp" transform="translate(0,1078.05)" d="M80,0h640" style="stroke: rgb(249, 249, 249); stroke-opacity: 1; stroke-width: 1px;"/><path class="ygrid crisp" transform="translate(0,1028.63)" d="M80,0h640" style="stroke: rgb(249, 249, 249); stroke-opacity: 1; stroke-width: 1px;"/><path class="ygrid crisp" transform="translate(0,991.72)" d="M80,0h640" style="stroke: rgb(249, 249, 249); stroke-opacity: 1; stroke-width: 1px;"/><path class="ygrid crisp" transform="translate(0,962.25)" d="M80,0h640" style="stroke: rgb(249, 249, 249); stroke-opacity: 1; stroke-width: 1px;"/><path class="ygrid crisp" transform="translate(0,937.71)" d="M80,0h640" style="stroke: rgb(249, 249, 249); stroke-opacity: 1; stroke-width: 1px;"/><path class="ygrid crisp" transform="translate(0,916.69)" d="M80,0h640" style="stroke: rgb(249, 249, 249); stroke-opacity: 1; stroke-width: 1px;"/><path class="ygrid crisp" transform="translate(0,898.31)" d="M80,0h640" style="stroke: rgb(249, 249, 249); stroke-opacity: 1; stroke-width: 1px;"/><path class="ygrid crisp" transform="translate(0,881.98)" d="M80,0h640" style="stroke: rgb(249, 249, 249); stroke-opacity: 1; stroke-width: 1px;"/><path class="ygrid crisp" transform="translate(0,867.28)" d="M80,0h640" style="stroke: rgb(249, 249, 249); stroke-opacity: 1; stroke-width: 1px;"/><path class="ygrid crisp" transform="translate(0,853.92)" d="M80,0h640" style="stroke: rgb(249, 249, 249); stroke-opacity: 1; stroke-width: 1px;"/><path class="ygrid crisp" transform="translate(0,841.67)" d="M80,0h640" style="stroke: rgb(249, 249, 249); stroke-opacity: 1; stroke-width: 1px;"/><path class="ygrid crisp" transform="translate(0,830.37)" d="M80,0h640" style="stroke: rgb(249, 249, 249); stroke-opacity: 1; stroke-width: 1px;"/><path class="ygrid crisp" transform="translate(0,819.87)" d="M80,0h640" style="stroke: rgb(249, 249, 249); stroke-opacity: 1; stroke-width: 1px;"/><path class="ygrid crisp" transform="translate(0,810.08)" d="M80,0h640" style="stroke: rgb(249, 249, 249); stroke-opacity: 1; stroke-width: 1px;"/><path class="ygrid crisp" transform="translate(0,800.89)" d="M80,0h640" style="stroke: rgb(249, 249, 249); stroke-opacity: 1; stroke-width: 1px;"/><path class="ygrid crisp" transform="translate(0,792.25)" d="M80,0h640" style="stroke: rgb(249, 249, 249); stroke-opacity: 1; stroke-width: 1px;"/><path class="ygrid crisp" transform="translate(0,784.09)" d="M80,0h640" style="stroke: rgb(249, 249, 249); stroke-opacity: 1; stroke-width: 1px;"/><path class="ygrid crisp" transform="translate(0,776.36)" d="M80,0h640" style="stroke: rgb(249, 249, 249); stroke-opacity: 1; stroke-width: 1px;"/><path class="ygrid crisp" transform="translate(0,769.01)" d="M80,0h640" style="stroke: rgb(249, 249, 249); stroke-opacity: 1; stroke-width: 1px;"/><path class="ygrid crisp" transform="translate(0,762.02)" d="M80,0h640" style="stroke: rgb(249, 249, 249); stroke-opacity: 1; stroke-width: 1px;"/><path class="ygrid crisp" transform="translate(0,755.34)" d="M80,0h640" style="stroke: rgb(249, 249, 249); stroke-opacity: 1; stroke-width: 1px;"/><path class="ygrid crisp" transform="translate(0,701.33)" d="M80,0h640" style="stroke: rgb(249, 249, 249); stroke-opacity: 1; stroke-width: 1px;"/><path class="ygrid crisp" transform="translate(0,661.93)" d="M80,0h640" style="stroke: rgb(249, 249, 249); stroke-opacity: 1; stroke-width: 1px;"/><path class="ygrid crisp" transform="translate(0,630.9)" d="M80,0h640" style="stroke: rgb(249, 249, 249); stroke-opacity: 1; stroke-width: 1px;"/><path class="ygrid crisp" transform="translate(0,605.29)" d="M80,0h640" style="stroke: rgb(249, 249, 249); stroke-opacity: 1; stroke-width: 1px;"/><path class="ygrid crisp" transform="translate(0,583.49)" d="M80,0h640" style="stroke: rgb(249, 249, 249); stroke-opacity: 1; stroke-width: 1px;"/><path class="ygrid crisp" transform="translate(0,564.52)" d="M80,0h640" style="stroke: rgb(249, 249, 249); stroke-opacity: 1; stroke-width: 1px;"/><path class="ygrid crisp" transform="translate(0,547.71)" d="M80,0h640" style="stroke: rgb(249, 249, 249); stroke-opacity: 1; stroke-width: 1px;"/><path class="ygrid crisp" transform="translate(0,532.64)" d="M80,0h640" style="stroke: rgb(249, 249, 249); stroke-opacity: 1; stroke-width: 1px;"/><path class="ygrid crisp" transform="translate(0,518.96)" d="M80,0h640" style="stroke: rgb(249, 249, 249); stroke-opacity: 1; stroke-width: 1px;"/><path class="ygrid crisp" transform="translate(0,506.46)" d="M80,0h640" style="stroke: rgb(249, 249, 249); stroke-opacity: 1; stroke-width: 1px;"/><path class="ygrid crisp" transform="translate(0,494.93)" d="M80,0h640" style="stroke: rgb(249, 249, 249); stroke-opacity: 1; stroke-width: 1px;"/><path class="ygrid crisp" transform="translate(0,484.25)" d="M80,0h640" style="stroke: rgb(249, 249, 249); stroke-opacity: 1; stroke-width: 1px;"/><path class="ygrid crisp" transform="translate(0,474.28)" d="M80,0h640" style="stroke: rgb(249, 249, 249); stroke-opacity: 1; stroke-width: 1px;"/><path class="ygrid crisp" transform="translate(0,464.96)" d="M80,0h640" style="stroke: rgb(249, 249, 249); stroke-opacity: 1; stroke-width: 1px;"/><path class="ygrid crisp" transform="translate(0,456.19)" d="M80,0h640" style="stroke: rgb(249, 249, 249); stroke-opacity: 1; stroke-width: 1px;"/><path class="ygrid crisp" transform="translate(0,447.91)" d="M80,0h640" style="stroke: rgb(249, 249, 249); stroke-opacity: 1; stroke-width: 1px;"/><path class="ygrid crisp" transform="translate(0,440.07)" d="M80,0h640" style="stroke: rgb(249, 249, 249); stroke-opacity: 1; stroke-width: 1px;"/><path class="ygrid crisp" transform="translate(0,432.64)" d="M80,0h640" style="stroke: rgb(249, 249, 249); stroke-opacity: 1; stroke-width: 1px;"/><path class="ygrid crisp" transform="translate(0,373.69)" d="M80,0h640" style="stroke: rgb(249, 249, 249); stroke-opacity: 1; stroke-width: 1px;"/><path class="ygrid crisp" transform="translate(0,331.74)" d="M80,0h640" style="stroke: rgb(249, 249, 249); stroke-opacity: 1; stroke-width: 1px;"/><path class="ygrid crisp" transform="translate(0,299.15)" d="M80,0h640" style="stroke: rgb(249, 249, 249); stroke-opacity: 1; stroke-width: 1px;"/><path class="ygrid crisp" transform="translate(0,272.5)" d="M80,0h640" style="stroke: rgb(249, 249, 249); stroke-opacity: 1; stroke-width: 1px;"/><path class="ygrid crisp" transform="translate(0,249.94)" d="M80,0h640" style="stroke: rgb(249, 249, 249); stroke-opacity: 1; stroke-width: 1px;"/><path class="ygrid crisp" transform="translate(0,230.4)" d="M80,0h640" style="stroke: rgb(249, 249, 249); stroke-opacity: 1; stroke-width: 1px;"/><path class="ygrid crisp" transform="translate(0,213.15)" d="M80,0h640" style="stroke: rgb(249, 249, 249); stroke-opacity: 1; stroke-width: 1px;"/><path class="ygrid crisp" transform="translate(0,197.72)" d="M80,0h640" style="stroke: rgb(249, 249, 249); stroke-opacity: 1; stroke-width: 1px;"/><path class="ygrid crisp" transform="translate(0,183.75)" d="M80,0h640" style="stroke: rgb(249, 249, 249); stroke-opacity: 1; stroke-width: 1px;"/><path class="ygrid crisp" transform="translate(0,171)" d="M80,0h640" style="stroke: rgb(249, 249, 249); stroke-opacity: 1; stroke-width: 1px;"/></g></g><g class="gridlayer"><g class="x"/><g class="y"><path class="ygrid crisp" transform="translate(0,1314.42)" d="M80,0h640" style="stroke: rgb(238, 238, 238); stroke-opacity: 1; stroke-width: 1px;"/><path class="ygrid crisp" transform="translate(0,1153.07)" d="M80,0h640" style="stroke: rgb(238, 238, 238); stroke-opacity: 1; stroke-width: 1px;"/><path class="ygrid crisp" transform="translate(0,1078.05)" d="M80,0h640" style="stroke: rgb(238, 238, 238); stroke-opacity: 1; stroke-width: 1px;"/><path class="ygrid crisp" transform="translate(0,841.67)" d="M80,0h640" style="stroke: rgb(238, 238, 238); stroke-opacity: 1; stroke-width: 1px;"/><path class="ygrid crisp" transform="translate(0,755.34)" d="M80,0h640" style="stroke: rgb(238, 238, 238); stroke-opacity: 1; stroke-width: 1px;"/><path class="ygrid crisp" transform="translate(0,630.9)" d="M80,0h640" style="stroke: rgb(238, 238, 238); stroke-opacity: 1; stroke-width: 1px;"/><path class="ygrid crisp" transform="translate(0,532.64)" d="M80,0h640" style="stroke: rgb(238, 238, 238); stroke-opacity: 1; stroke-width: 1px;"/><path class="ygrid crisp" transform="translate(0,432.64)" d="M80,0h640" style="stroke: rgb(238, 238, 238); stroke-opacity: 1; stroke-width: 1px;"/><path class="ygrid crisp" transform="translate(0,331.74)" d="M80,0h640" style="stroke: rgb(238, 238, 238); stroke-opacity: 1; stroke-width: 1px;"/></g></g><g class="zerolinelayer"/><path class="xlines-below"/><path class="ylines-below"/><g class="overlines-below"/><g class="xaxislayer-below"/><g class="yaxislayer-below"/><g class="overaxes-below"/><g class="plot" transform="translate(80,100)"><g class="barlayer mlayer"><g class="trace bars" style="opacity: 1;"><g class="points"><g class="point"><path d="M6.7,231.74V71H8.19V231.74Z" clip-path="url(#clip2a430cxyplot)" style="vector-effect: none; opacity: 1; stroke-width: 0px; fill: rgb(31, 119, 180); fill-opacity: 1;"/><text class="bartext bartext-outside" text-anchor="middle" data-notex="1" x="0" y="0" style="font-family: 'Open Sans', verdana, arial, sans-serif; font-size: 12px; fill: rgb(68, 68, 68); fill-opacity: 1; white-space: pre;" transform="translate(7.445,47.703125)rotate(90 0 -4.75)">Neolithic </text></g><g class="point"><path d="M21.58,1349V130.4H23.07V1349Z" clip-path="url(#clip2a430cxyplot)" style="vector-effect: none; opacity: 1; stroke-width: 0px; fill: rgb(31, 119, 180); fill-opacity: 1;"/><text class="bartext bartext-outside" text-anchor="middle" data-notex="1" x="0" y="0" style="font-family: 'Open Sans', verdana, arial, sans-serif; font-size: 12px; fill: rgb(68, 68, 68); fill-opacity: 1; white-space: pre;" transform="translate(22.325,100.15)rotate(90 0 -4.75)">Stilt House </text></g><g class="point"><path d="M36.47,1349V172.5H37.95V1349Z" clip-path="url(#clip2a430cxyplot)" style="vector-effect: none; opacity: 1; stroke-width: 0px; fill: rgb(31, 119, 180); fill-opacity: 1;"/><text class="bartext bartext-outside" text-anchor="middle" data-notex="1" x="0" y="0" style="font-family: 'Open Sans', verdana, arial, sans-serif; font-size: 12px; fill: rgb(68, 68, 68); fill-opacity: 1; white-space: pre;" transform="translate(37.21,145.4375)rotate(90 0 -4.75)">Mud Brick </text></g><g class="point"><path d="M51.35,330.48V196.26H52.84V330.48Z" clip-path="url(#clip2a430cxyplot)" style="vector-effect: none; opacity: 1; stroke-width: 0px; fill: rgb(31, 119, 180); fill-opacity: 1;"/><text class="bartext bartext-outside" text-anchor="middle" data-notex="1" x="0" y="0" style="font-family: 'Open Sans', verdana, arial, sans-serif; font-size: 12px; fill: rgb(68, 68, 68); fill-opacity: 1; white-space: pre;" transform="translate(52.095,148.150625)rotate(90 0 -4.75)">Ancient Egyptian </text></g><g class="point"><path d="M66.23,655.34V273.69H67.72V655.34Z" clip-path="url(#clip2a430cxyplot)" style="vector-effect: none; opacity: 1; stroke-width: 0px; fill: rgb(31, 119, 180); fill-opacity: 1;"/><text class="bartext bartext-outside" text-anchor="middle" data-notex="1" x="0" y="0" style="font-family: 'Open Sans', verdana, arial, sans-serif; font-size: 12px; fill: rgb(68, 68, 68); fill-opacity: 1; white-space: pre;" transform="translate(66.975,261.1275)rotate(90 0 -4.75)">Igloo </text></g><g class="point"><path d="M81.12,322.41V278.63H82.6V322.41Z" clip-path="url(#clip2a430cxyplot)" style="vector-effect: none; opacity: 1; stroke-width: 0px; fill: rgb(31, 119, 180); fill-opacity: 1;"/><text class="bartext bartext-outside" text-anchor="middle" data-notex="1" x="0" y="0" style="font-family: 'Open Sans', verdana, arial, sans-serif; font-size: 12px; fill: rgb(68, 68, 68); fill-opacity: 1; white-space: pre;" transform="translate(81.86,238.833125)rotate(90 0 -4.75)">Ancient Greek </text></g><g class="point"><path d="M96,371.99V312.35H97.49V371.99Z" clip-path="url(#clip2a430cxyplot)" style="vector-effect: none; opacity: 1; stroke-width: 0px; fill: rgb(31, 119, 180); fill-opacity: 1;"/><text class="bartext bartext-outside" text-anchor="middle" data-notex="1" x="0" y="0" style="font-family: 'Open Sans', verdana, arial, sans-serif; font-size: 12px; fill: rgb(68, 68, 68); fill-opacity: 1; white-space: pre;" transform="translate(96.745,269.4125)rotate(90 0 -4.75)">Ancient Roman </text></g><g class="point"><path d="M110.88,518.31V358.76H112.37V518.31Z" clip-path="url(#clip2a430cxyplot)" style="vector-effect: none; opacity: 1; stroke-width: 0px; fill: rgb(31, 119, 180); fill-opacity: 1;"/><text class="bartext bartext-outside" text-anchor="middle" data-notex="1" x="0" y="0" style="font-family: 'Open Sans', verdana, arial, sans-serif; font-size: 12px; fill: rgb(68, 68, 68); fill-opacity: 1; white-space: pre;" transform="translate(111.625,331.79125)rotate(90 0 -4.75)">Byzantine </text></g><g class="point"><path d="M125.77,756.49V386.11H127.26V756.49Z" clip-path="url(#clip2a430cxyplot)" style="vector-effect: none; opacity: 1; stroke-width: 0px; fill: rgb(31, 119, 180); fill-opacity: 1;"/><text class="bartext bartext-outside" text-anchor="middle" data-notex="1" x="0" y="0" style="font-family: 'Open Sans', verdana, arial, sans-serif; font-size: 12px; fill: rgb(68, 68, 68); fill-opacity: 1; white-space: pre;" transform="translate(126.515,337.7975)rotate(90 0 -4.75)">Chinese Imperial </text></g><g class="point"><path d="M140.65,464.52V406.46H142.14V464.52Z" clip-path="url(#clip2a430cxyplot)" style="vector-effect: none; opacity: 1; stroke-width: 0px; fill: rgb(31, 119, 180); fill-opacity: 1;"/><text class="bartext bartext-outside" text-anchor="middle" data-notex="1" x="0" y="0" style="font-family: 'Open Sans', verdana, arial, sans-serif; font-size: 12px; fill: rgb(68, 68, 68); fill-opacity: 1; white-space: pre;" transform="translate(141.39499999999998,370.24125)rotate(90 0 -4.75)">Romanesque </text></g><g class="point"><path d="M155.53,505.29V406.46H157.02V505.29Z" clip-path="url(#clip2a430cxyplot)" style="vector-effect: none; opacity: 1; stroke-width: 0px; fill: rgb(31, 119, 180); fill-opacity: 1;"/><text class="bartext bartext-outside" text-anchor="middle" data-notex="1" x="0" y="0" style="font-family: 'Open Sans', verdana, arial, sans-serif; font-size: 12px; fill: rgb(68, 68, 68); fill-opacity: 1; white-space: pre;" transform="translate(156.275,385.61625)rotate(90 0 -4.75)">Moorish </text></g><g class="point"><path d="M170.42,530.9V447.71H171.91V530.9Z" clip-path="url(#clip2a430cxyplot)" style="vector-effect: none; opacity: 1; stroke-width: 0px; fill: rgb(31, 119, 180); fill-opacity: 1;"/><text class="bartext bartext-outside" text-anchor="middle" data-notex="1" x="0" y="0" style="font-family: 'Open Sans', verdana, arial, sans-serif; font-size: 12px; fill: rgb(68, 68, 68); fill-opacity: 1; white-space: pre;" transform="translate(171.165,431.11625)rotate(90 0 -4.75)">Gothic </text></g><g class="point"><path d="M185.3,601.33V463.28H186.79V601.33Z" clip-path="url(#clip2a430cxyplot)" style="vector-effect: none; opacity: 1; stroke-width: 0px; fill: rgb(31, 119, 180); fill-opacity: 1;"/><text class="bartext bartext-outside" text-anchor="middle" data-notex="1" x="0" y="0" style="font-family: 'Open Sans', verdana, arial, sans-serif; font-size: 12px; fill: rgb(68, 68, 68); fill-opacity: 1; white-space: pre;" transform="translate(186.04500000000002,427.983125)rotate(90 0 -4.75)">Indo-Islamic </text></g><g class="point"><path d="M200.19,561.93V505.29H201.67V561.93Z" clip-path="url(#clip2a430cxyplot)" style="vector-effect: none; opacity: 1; stroke-width: 0px; fill: rgb(31, 119, 180); fill-opacity: 1;"/><text class="bartext bartext-outside" text-anchor="middle" data-notex="1" x="0" y="0" style="font-family: 'Open Sans', verdana, arial, sans-serif; font-size: 12px; fill: rgb(68, 68, 68); fill-opacity: 1; white-space: pre;" transform="translate(200.93,470.774375)rotate(90 0 -4.75)">Renaissance </text></g><g class="point"><path d="M215.07,562.97V526.76H216.56V562.97Z" clip-path="url(#clip2a430cxyplot)" style="vector-effect: none; opacity: 1; stroke-width: 0px; fill: rgb(31, 119, 180); fill-opacity: 1;"/><text class="bartext bartext-outside" text-anchor="middle" data-notex="1" x="0" y="0" style="font-family: 'Open Sans', verdana, arial, sans-serif; font-size: 12px; fill: rgb(68, 68, 68); fill-opacity: 1; white-space: pre;" transform="translate(215.815,511.963125)rotate(90 0 -4.75)">Tudor </text></g><g class="point"><path d="M229.95,625.87V556.51H231.44V625.87Z" clip-path="url(#clip2a430cxyplot)" style="vector-effect: none; opacity: 1; stroke-width: 0px; fill: rgb(31, 119, 180); fill-opacity: 1;"/><text class="bartext bartext-outside" text-anchor="middle" data-notex="1" x="0" y="0" style="font-family: 'Open Sans', verdana, arial, sans-serif; font-size: 12px; fill: rgb(68, 68, 68); fill-opacity: 1; white-space: pre;" transform="translate(230.695,534.119375)rotate(90 0 -4.75)">Baroque </text></g><g class="point"><path d="M244.84,583.08V562.97H246.33V583.08Z" clip-path="url(#clip2a430cxyplot)" style="vector-effect: none; opacity: 1; stroke-width: 0px; fill: rgb(31, 119, 180); fill-opacity: 1;"/><text class="bartext bartext-outside" text-anchor="middle" data-notex="1" x="0" y="0" style="font-family: 'Open Sans', verdana, arial, sans-serif; font-size: 12px; fill: rgb(68, 68, 68); fill-opacity: 1; white-space: pre;" transform="translate(245.585,533.548125)rotate(90 0 -4.75)">Edo Period </text></g><g class="point"><path d="M259.72,655.34V601.33H261.21V655.34Z" clip-path="url(#clip2a430cxyplot)" style="vector-effect: none; opacity: 1; stroke-width: 0px; fill: rgb(31, 119, 180); fill-opacity: 1;"/><text class="bartext bartext-outside" text-anchor="middle" data-notex="1" x="0" y="0" style="font-family: 'Open Sans', verdana, arial, sans-serif; font-size: 12px; fill: rgb(68, 68, 68); fill-opacity: 1; white-space: pre;" transform="translate(260.46500000000003,577.064375)rotate(90 0 -4.75)">Palladian </text></g><g class="point"><path d="M274.6,681.73V607.8H276.09V681.73Z" clip-path="url(#clip2a430cxyplot)" style="vector-effect: none; opacity: 1; stroke-width: 0px; fill: rgb(31, 119, 180); fill-opacity: 1;"/><text class="bartext bartext-outside" text-anchor="middle" data-notex="1" x="0" y="0" style="font-family: 'Open Sans', verdana, arial, sans-serif; font-size: 12px; fill: rgb(68, 68, 68); fill-opacity: 1; white-space: pre;" transform="translate(275.345,583.221875)rotate(90 0 -4.75)">Georgian </text></g><g class="point"><path d="M289.49,631.31V615.56H290.98V631.31Z" clip-path="url(#clip2a430cxyplot)" style="vector-effect: none; opacity: 1; stroke-width: 0px; fill: rgb(31, 119, 180); fill-opacity: 1;"/><text class="bartext bartext-outside" text-anchor="middle" data-notex="1" x="0" y="0" style="font-family: 'Open Sans', verdana, arial, sans-serif; font-size: 12px; fill: rgb(68, 68, 68); fill-opacity: 1; white-space: pre;" transform="translate(290.235,596.84125)rotate(90 0 -4.75)">Rococo </text></g><g class="point"><path d="M304.37,752.64V620.62H305.86V752.64Z" clip-path="url(#clip2a430cxyplot)" style="vector-effect: none; opacity: 1; stroke-width: 0px; fill: rgb(31, 119, 180); fill-opacity: 1;"/><text class="bartext bartext-outside" text-anchor="middle" data-notex="1" x="0" y="0" style="font-family: 'Open Sans', verdana, arial, sans-serif; font-size: 12px; fill: rgb(68, 68, 68); fill-opacity: 1; white-space: pre;" transform="translate(305.115,586.90125)rotate(90 0 -4.75)">Neoclassical </text></g><g class="point"><path d="M319.26,692.25V648.96H320.74V692.25Z" clip-path="url(#clip2a430cxyplot)" style="vector-effect: none; opacity: 1; stroke-width: 0px; fill: rgb(31, 119, 180); fill-opacity: 1;"/><text class="bartext bartext-outside" text-anchor="middle" data-notex="1" x="0" y="0" style="font-family: 'Open Sans', verdana, arial, sans-serif; font-size: 12px; fill: rgb(68, 68, 68); fill-opacity: 1; white-space: pre;" transform="translate(320,629.444375)rotate(90 0 -4.75)">Federal </text></g><g class="point"><path d="M334.14,810.93V652.11H335.63V810.93Z" clip-path="url(#clip2a430cxyplot)" style="vector-effect: none; opacity: 1; stroke-width: 0px; fill: rgb(31, 119, 180); fill-opacity: 1;"/><text class="bartext bartext-outside" text-anchor="middle" data-notex="1" x="0" y="0" style="font-family: 'Open Sans', verdana, arial, sans-serif; font-size: 12px; fill: rgb(68, 68, 68); fill-opacity: 1; white-space: pre;" transform="translate(334.885,609.1725)rotate(90 0 -4.75)">Indo-Saracenic </text></g><g class="point"><path d="M349.02,665.47V655.34H350.51V665.47Z" clip-path="url(#clip2a430cxyplot)" style="vector-effect: none; opacity: 1; stroke-width: 0px; fill: rgb(31, 119, 180); fill-opacity: 1;"/><text class="bartext bartext-outside" text-anchor="middle" data-notex="1" x="0" y="0" style="font-family: 'Open Sans', verdana, arial, sans-serif; font-size: 12px; fill: rgb(68, 68, 68); fill-opacity: 1; white-space: pre;" transform="translate(349.765,632.43375)rotate(90 0 -4.75)">Regency </text></g><g class="point"><path d="M363.91,781.98V663.39H365.4V781.98Z" clip-path="url(#clip2a430cxyplot)" style="vector-effect: none; opacity: 1; stroke-width: 0px; fill: rgb(31, 119, 180); fill-opacity: 1;"/><text class="bartext bartext-outside" text-anchor="middle" data-notex="1" x="0" y="0" style="font-family: 'Open Sans', verdana, arial, sans-serif; font-size: 12px; fill: rgb(68, 68, 68); fill-opacity: 1; white-space: pre;" transform="translate(364.655,618.7025)rotate(90 0 -4.75)">Moorish Revival </text></g><g class="point"><path d="M378.79,710.08V676.36H380.28V710.08Z" clip-path="url(#clip2a430cxyplot)" style="vector-effect: none; opacity: 1; stroke-width: 0px; fill: rgb(31, 119, 180); fill-opacity: 1;"/><text class="bartext bartext-outside" text-anchor="middle" data-notex="1" x="0" y="0" style="font-family: 'Open Sans', verdana, arial, sans-serif; font-size: 12px; fill: rgb(68, 68, 68); fill-opacity: 1; white-space: pre;" transform="translate(379.53499999999997,650.26625)rotate(90 0 -4.75)">Italianate </text></g><g class="point"><path d="M393.67,730.37V684.09H395.16V730.37Z" clip-path="url(#clip2a430cxyplot)" style="vector-effect: none; opacity: 1; stroke-width: 0px; fill: rgb(31, 119, 180); fill-opacity: 1;"/><text class="bartext bartext-outside" text-anchor="middle" data-notex="1" x="0" y="0" style="font-family: 'Open Sans', verdana, arial, sans-serif; font-size: 12px; fill: rgb(68, 68, 68); fill-opacity: 1; white-space: pre;" transform="translate(394.415,643.636875)rotate(90 0 -4.75)">Gothic Revival </text></g><g class="point"><path d="M408.56,759.12V730.37H410.05V759.12Z" clip-path="url(#clip2a430cxyplot)" style="vector-effect: none; opacity: 1; stroke-width: 0px; fill: rgb(31, 119, 180); fill-opacity: 1;"/><text class="bartext bartext-outside" text-anchor="middle" data-notex="1" x="0" y="0" style="font-family: 'Open Sans', verdana, arial, sans-serif; font-size: 12px; fill: rgb(68, 68, 68); fill-opacity: 1; white-space: pre;" transform="translate(409.305,695.416875)rotate(90 0 -4.75)">Art Nouveau </text></g><g class="point"><path d="M423.44,781.98V747.67H424.93V781.98Z" clip-path="url(#clip2a430cxyplot)" style="vector-effect: none; opacity: 1; stroke-width: 0px; fill: rgb(31, 119, 180); fill-opacity: 1;"/><text class="bartext bartext-outside" text-anchor="middle" data-notex="1" x="0" y="0" style="font-family: 'Open Sans', verdana, arial, sans-serif; font-size: 12px; fill: rgb(68, 68, 68); fill-opacity: 1; white-space: pre;" transform="translate(424.185,707.13875)rotate(90 0 -4.75)">Expressionism </text></g><g class="point"><path d="M438.33,767.28V753.92H439.81V767.28Z" clip-path="url(#clip2a430cxyplot)" style="vector-effect: none; opacity: 1; stroke-width: 0px; fill: rgb(31, 119, 180); fill-opacity: 1;"/><text class="bartext bartext-outside" text-anchor="middle" data-notex="1" x="0" y="0" style="font-family: 'Open Sans', verdana, arial, sans-serif; font-size: 12px; fill: rgb(68, 68, 68); fill-opacity: 1; white-space: pre;" transform="translate(439.07,737.341875)rotate(90 0 -4.75)">Prairie </text></g><g class="point"><path d="M453.21,781.98V763.14H454.7V781.98Z" clip-path="url(#clip2a430cxyplot)" style="vector-effect: none; opacity: 1; stroke-width: 0px; fill: rgb(31, 119, 180); fill-opacity: 1;"/><text class="bartext bartext-outside" text-anchor="middle" data-notex="1" x="0" y="0" style="font-family: 'Open Sans', verdana, arial, sans-serif; font-size: 12px; fill: rgb(68, 68, 68); fill-opacity: 1; white-space: pre;" transform="translate(453.955,720.999375)rotate(90 0 -4.75)">Constructivism </text></g><g class="point"><path d="M468.09,786.69V765.88H469.58V786.69Z" clip-path="url(#clip2a430cxyplot)" style="vector-effect: none; opacity: 1; stroke-width: 0px; fill: rgb(31, 119, 180); fill-opacity: 1;"/><text class="bartext bartext-outside" text-anchor="middle" data-notex="1" x="0" y="0" style="font-family: 'Open Sans', verdana, arial, sans-serif; font-size: 12px; fill: rgb(68, 68, 68); fill-opacity: 1; white-space: pre;" transform="translate(468.835,742.676875)rotate(90 0 -4.75)">Bauhaus </text></g><g class="point"><path d="M482.98,796.59V767.28H484.47V796.59Z" clip-path="url(#clip2a430cxyplot)" style="vector-effect: none; opacity: 1; stroke-width: 0px; fill: rgb(31, 119, 180); fill-opacity: 1;"/><text class="bartext bartext-outside" text-anchor="middle" data-notex="1" x="0" y="0" style="font-family: 'Open Sans', verdana, arial, sans-serif; font-size: 12px; fill: rgb(68, 68, 68); fill-opacity: 1; white-space: pre;" transform="translate(483.725,743.81125)rotate(90 0 -4.75)">Art Deco </text></g><g class="point"><path d="M497.86,816.69V767.28H499.35V816.69Z" clip-path="url(#clip2a430cxyplot)" style="vector-effect: none; opacity: 1; stroke-width: 0px; fill: rgb(31, 119, 180); fill-opacity: 1;"/><text class="bartext bartext-outside" text-anchor="middle" data-notex="1" x="0" y="0" style="font-family: 'Open Sans', verdana, arial, sans-serif; font-size: 12px; fill: rgb(68, 68, 68); fill-opacity: 1; white-space: pre;" transform="translate(498.605,713.639375)rotate(90 0 -4.75)">International Style </text></g><g class="point"><path d="M512.74,837.71V798.31H514.23V837.71Z" clip-path="url(#clip2a430cxyplot)" style="vector-effect: none; opacity: 1; stroke-width: 0px; fill: rgb(31, 119, 180); fill-opacity: 1;"/><text class="bartext bartext-outside" text-anchor="middle" data-notex="1" x="0" y="0" style="font-family: 'Open Sans', verdana, arial, sans-serif; font-size: 12px; fill: rgb(68, 68, 68); fill-opacity: 1; white-space: pre;" transform="translate(513.485,739.46625)rotate(90 0 -4.75)">Mid-Century Modern </text></g><g class="point"><path d="M527.63,862.25V807.22H529.12V862.25Z" clip-path="url(#clip2a430cxyplot)" style="vector-effect: none; opacity: 1; stroke-width: 0px; fill: rgb(31, 119, 180); fill-opacity: 1;"/><text class="bartext bartext-outside" text-anchor="middle" data-notex="1" x="0" y="0" style="font-family: 'Open Sans', verdana, arial, sans-serif; font-size: 12px; fill: rgb(68, 68, 68); fill-opacity: 1; white-space: pre;" transform="translate(528.375,788.954375)rotate(90 0 -4.75)">Googie </text></g><g class="point"><path d="M542.51,862.25V816.69H544V862.25Z" clip-path="url(#clip2a430cxyplot)" style="vector-effect: none; opacity: 1; stroke-width: 0px; fill: rgb(31, 119, 180); fill-opacity: 1;"/><text class="bartext bartext-outside" text-anchor="middle" data-notex="1" x="0" y="0" style="font-family: 'Open Sans', verdana, arial, sans-serif; font-size: 12px; fill: rgb(68, 68, 68); fill-opacity: 1; white-space: pre;" transform="translate(543.255,790.6275)rotate(90 0 -4.75)">Brutalism </text></g><g class="point"><path d="M557.4,978.05V837.71H558.88V978.05Z" clip-path="url(#clip2a430cxyplot)" style="vector-effect: none; opacity: 1; stroke-width: 0px; fill: rgb(31, 119, 180); fill-opacity: 1;"/><text class="bartext bartext-outside" text-anchor="middle" data-notex="1" x="0" y="0" style="font-family: 'Open Sans', verdana, arial, sans-serif; font-size: 12px; fill: rgb(68, 68, 68); fill-opacity: 1; white-space: pre;" transform="translate(558.14,793.835)rotate(90 0 -4.75)">Postmodernism </text></g><g class="point"><path d="M572.28,1349V837.71H573.77V1349Z" clip-path="url(#clip2a430cxyplot)" style="vector-effect: none; opacity: 1; stroke-width: 0px; fill: rgb(31, 119, 180); fill-opacity: 1;"/><text class="bartext bartext-outside" text-anchor="middle" data-notex="1" x="0" y="0" style="font-family: 'Open Sans', verdana, arial, sans-serif; font-size: 12px; fill: rgb(68, 68, 68); fill-opacity: 1; white-space: pre;" transform="translate(573.025,799.335)rotate(90 0 -4.75)">Neo-Futurism </text></g><g class="point"><path d="M587.16,1349V837.71H588.65V1349Z" clip-path="url(#clip2a430cxyplot)" style="vector-effect: none; opacity: 1; stroke-width: 0px; fill: rgb(31, 119, 180); fill-opacity: 1;"/><text class="bartext bartext-outside" text-anchor="middle" data-notex="1" x="0" y="0" style="font-family: 'Open Sans', verdana, arial, sans-serif; font-size: 12px; fill: rgb(68, 68, 68); fill-opacity: 1; white-space: pre;" transform="translate(587.905,792.381875)rotate(90 0 -4.75)">Late Modernism </text></g><g class="point"><path d="M602.05,1349V891.72H603.53V1349Z" clip-path="url(#clip2a430cxyplot)" style="vector-effect: none; opacity: 1; stroke-width: 0px; fill: rgb(31, 119, 180); fill-opacity: 1;"/><text class="bartext bartext-outside" text-anchor="middle" data-notex="1" x="0" y="0" style="font-family: 'Open Sans', verdana, arial, sans-serif; font-size: 12px; fill: rgb(68, 68, 68); fill-opacity: 1; white-space: pre;" transform="translate(602.79,842.454375)rotate(90 0 -4.75)">Deconstructivism </text></g><g class="point"><path d="M616.93,1349V928.63H618.42V1349Z" clip-path="url(#clip2a430cxyplot)" style="vector-effect: none; opacity: 1; stroke-width: 0px; fill: rgb(31, 119, 180); fill-opacity: 1;"/><text class="bartext bartext-outside" text-anchor="middle" data-notex="1" x="0" y="0" style="font-family: 'Open Sans', verdana, arial, sans-serif; font-size: 12px; fill: rgb(68, 68, 68); fill-opacity: 1; white-space: pre;" transform="translate(617.675,895.114375)rotate(90 0 -4.75)">Blobitecture </text></g><g class="point"><path d="M631.81,1349V966.74H633.3V1349Z" clip-path="url(#clip2a430cxyplot)" style="vector-effect: none; opacity: 1; stroke-width: 0px; fill: rgb(31, 119, 180); fill-opacity: 1;"/><text class="bartext bartext-outside" text-anchor="middle" data-notex="1" x="0" y="0" style="font-family: 'Open Sans', verdana, arial, sans-serif; font-size: 12px; fill: rgb(68, 68, 68); fill-opacity: 1; white-space: pre;" transform="translate(632.555,926.27125)rotate(90 0 -4.75)">Parametricism </text></g></g></g></g></g><g class="overplot"/><path class="xlines-above crisp" d="M0,0" style="fill: none;"/><path class="ylines-above crisp" d="M0,0" style="fill: none;"/><g class="overlines-above"/><g class="xaxislayer-above"/><g class="yaxislayer-above"><path class="ytick ticks crisp" d="M80,0h0" transform="translate(0,1449)" style="stroke: rgb(68, 68, 68); stroke-opacity: 1; stroke-width: 1px;"/><path class="ytick ticks crisp" d="M80,0h0" transform="translate(0,1389.45)" style="stroke: rgb(68, 68, 68); stroke-opacity: 1; stroke-width: 1px;"/><path class="ytick ticks crisp" d="M80,0h0" transform="translate(0,1347.2)" style="stroke: rgb(68, 68, 68); stroke-opacity: 1; stroke-width: 1px;"/><path class="ytick ticks crisp" d="M80,0h0" transform="translate(0,1314.42)" style="stroke: rgb(68, 68, 68); stroke-opacity: 1; stroke-width: 1px;"/><path class="ytick ticks crisp" d="M80,0h0" transform="translate(0,1287.65)" style="stroke: rgb(68, 68, 68); stroke-opacity: 1; stroke-width: 1px;"/><path class="ytick ticks crisp" d="M80,0h0" transform="translate(0,1265.01)" style="stroke: rgb(68, 68, 68); stroke-opacity: 1; stroke-width: 1px;"/><path class="ytick ticks crisp" d="M80,0h0" transform="translate(0,1245.4)" style="stroke: rgb(68, 68, 68); stroke-opacity: 1; stroke-width: 1px;"/><path class="ytick ticks crisp" d="M80,0h0" transform="translate(0,1228.1)" style="stroke: rgb(68, 68, 68); stroke-opacity: 1; stroke-width: 1px;"/><path class="ytick ticks crisp" d="M80,0h0" transform="translate(0,1212.62)" style="stroke: rgb(68, 68, 68); stroke-opacity: 1; stroke-width: 1px;"/><path class="ytick ticks crisp" d="M80,0h0" transform="translate(0,1198.62)" style="stroke: rgb(68, 68, 68); stroke-opacity: 1; stroke-width: 1px;"/><path class="ytick ticks crisp" d="M80,0h0" transform="translate(0,1185.84)" style="stroke: rgb(68, 68, 68); stroke-opacity: 1; stroke-width: 1px;"/><path class="ytick ticks crisp" d="M80,0h0" transform="translate(0,1174.09)" style="stroke: rgb(68, 68, 68); stroke-opacity: 1; stroke-width: 1px;"/><path class="ytick ticks crisp" d="M80,0h0" transform="translate(0,1163.2)" style="stroke: rgb(68, 68, 68); stroke-opacity: 1; stroke-width: 1px;"/><path class="ytick ticks crisp" d="M80,0h0" transform="translate(0,1153.07)" style="stroke: rgb(68, 68, 68); stroke-opacity: 1; stroke-width: 1px;"/><path class="ytick ticks crisp" d="M80,0h0" transform="translate(0,1143.59)" style="stroke: rgb(68, 68, 68); stroke-opacity: 1; stroke-width: 1px;"/><path class="ytick ticks crisp" d="M80,0h0" transform="translate(0,1134.69)" style="stroke: rgb(68, 68, 68); stroke-opacity: 1; stroke-width: 1px;"/><path class="ytick ticks crisp" d="M80,0h0" transform="translate(0,1126.29)" style="stroke: rgb(68, 68, 68); stroke-opacity: 1; stroke-width: 1px;"/><path class="ytick ticks crisp" d="M80,0h0" transform="translate(0,1118.35)" style="stroke: rgb(68, 68, 68); stroke-opacity: 1; stroke-width: 1px;"/><path class="ytick ticks crisp" d="M80,0h0" transform="translate(0,1110.8200000000002)" style="stroke: rgb(68, 68, 68); stroke-opacity: 1; stroke-width: 1px;"/><path class="ytick ticks crisp" d="M80,0h0" transform="translate(0,1103.65)" style="stroke: rgb(68, 68, 68); stroke-opacity: 1; stroke-width: 1px;"/><path class="ytick ticks crisp" d="M80,0h0" transform="translate(0,1096.8200000000002)" style="stroke: rgb(68, 68, 68); stroke-opacity: 1; stroke-width: 1px;"/><path class="ytick ticks crisp" d="M80,0h0" transform="translate(0,1090.29)" style="stroke: rgb(68, 68, 68); stroke-opacity: 1; stroke-width: 1px;"/><path class="ytick ticks crisp" d="M80,0h0" transform="translate(0,1084.04)" style="stroke: rgb(68, 68, 68); stroke-opacity: 1; stroke-width: 1px;"/><path class="ytick ticks crisp" d="M80,0h0" transform="translate(0,1078.05)" style="stroke: rgb(68, 68, 68); stroke-opacity: 1; stroke-width: 1px;"/><path class="ytick ticks crisp" d="M80,0h0" transform="translate(0,1028.63)" style="stroke: rgb(68, 68, 68); stroke-opacity: 1; stroke-width: 1px;"/><path class="ytick ticks crisp" d="M80,0h0" transform="translate(0,991.72)" style="stroke: rgb(68, 68, 68); stroke-opacity: 1; stroke-width: 1px;"/><path class="ytick ticks crisp" d="M80,0h0" transform="translate(0,962.25)" style="stroke: rgb(68, 68, 68); stroke-opacity: 1; stroke-width: 1px;"/><path class="ytick ticks crisp" d="M80,0h0" transform="translate(0,937.71)" style="stroke: rgb(68, 68, 68); stroke-opacity: 1; stroke-width: 1px;"/><path class="ytick ticks crisp" d="M80,0h0" transform="translate(0,916.69)" style="stroke: rgb(68, 68, 68); stroke-opacity: 1; stroke-width: 1px;"/><path class="ytick ticks crisp" d="M80,0h0" transform="translate(0,898.31)" style="stroke: rgb(68, 68, 68); stroke-opacity: 1; stroke-width: 1px;"/><path class="ytick ticks crisp" d="M80,0h0" transform="translate(0,881.98)" style="stroke: rgb(68, 68, 68); stroke-opacity: 1; stroke-width: 1px;"/><path class="ytick ticks crisp" d="M80,0h0" transform="translate(0,867.28)" style="stroke: rgb(68, 68, 68); stroke-opacity: 1; stroke-width: 1px;"/><path class="ytick ticks crisp" d="M80,0h0" transform="translate(0,853.92)" style="stroke: rgb(68, 68, 68); stroke-opacity: 1; stroke-width: 1px;"/><path class="ytick ticks crisp" d="M80,0h0" transform="translate(0,841.67)" style="stroke: rgb(68, 68, 68); stroke-opacity: 1; stroke-width: 1px;"/><path class="ytick ticks crisp" d="M80,0h0" transform="translate(0,830.37)" style="stroke: rgb(68, 68, 68); stroke-opacity: 1; stroke-width: 1px;"/><path class="ytick ticks crisp" d="M80,0h0" transform="translate(0,819.87)" style="stroke: rgb(68, 68, 68); stroke-opacity: 1; stroke-width: 1px;"/><path class="ytick ticks crisp" d="M80,0h0" transform="translate(0,810.08)" style="stroke: rgb(68, 68, 68); stroke-opacity: 1; stroke-width: 1px;"/><path class="ytick ticks crisp" d="M80,0h0" transform="translate(0,800.89)" style="stroke: rgb(68, 68, 68); stroke-opacity: 1; stroke-width: 1px;"/><path class="ytick ticks crisp" d="M80,0h0" transform="translate(0,792.25)" style="stroke: rgb(68, 68, 68); stroke-opacity: 1; stroke-width: 1px;"/><path class="ytick ticks crisp" d="M80,0h0" transform="translate(0,784.09)" style="stroke: rgb(68, 68, 68); stroke-opacity: 1; stroke-width: 1px;"/><path class="ytick ticks crisp" d="M80,0h0" transform="translate(0,776.36)" style="stroke: rgb(68, 68, 68); stroke-opacity: 1; stroke-width: 1px;"/><path class="ytick ticks crisp" d="M80,0h0" transform="translate(0,769.01)" style="stroke: rgb(68, 68, 68); stroke-opacity: 1; stroke-width: 1px;"/><path class="ytick ticks crisp" d="M80,0h0" transform="translate(0,762.02)" style="stroke: rgb(68, 68, 68); stroke-opacity: 1; stroke-width: 1px;"/><path class="ytick ticks crisp" d="M80,0h0" transform="translate(0,755.34)" style="stroke: rgb(68, 68, 68); stroke-opacity: 1; stroke-width: 1px;"/><path class="ytick ticks crisp" d="M80,0h0" transform="translate(0,701.33)" style="stroke: rgb(68, 68, 68); stroke-opacity: 1; stroke-width: 1px;"/><path class="ytick ticks crisp" d="M80,0h0" transform="translate(0,661.93)" style="stroke: rgb(68, 68, 68); stroke-opacity: 1; stroke-width: 1px;"/><path class="ytick ticks crisp" d="M80,0h0" transform="translate(0,630.9)" style="stroke: rgb(68, 68, 68); stroke-opacity: 1; stroke-width: 1px;"/><path class="ytick ticks crisp" d="M80,0h0" transform="translate(0,605.29)" style="stroke: rgb(68, 68, 68); stroke-opacity: 1; stroke-width: 1px;"/><path class="ytick ticks crisp" d="M80,0h0" transform="translate(0,583.49)" style="stroke: rgb(68, 68, 68); stroke-opacity: 1; stroke-width: 1px;"/><path class="ytick ticks crisp" d="M80,0h0" transform="translate(0,564.52)" style="stroke: rgb(68, 68, 68); stroke-opacity: 1; stroke-width: 1px;"/><path class="ytick ticks crisp" d="M80,0h0" transform="translate(0,547.71)" style="stroke: rgb(68, 68, 68); stroke-opacity: 1; stroke-width: 1px;"/><path class="ytick ticks crisp" d="M80,0h0" transform="translate(0,532.64)" style="stroke: rgb(68, 68, 68); stroke-opacity: 1; stroke-width: 1px;"/><path class="ytick ticks crisp" d="M80,0h0" transform="translate(0,518.96)" style="stroke: rgb(68, 68, 68); stroke-opacity: 1; stroke-width: 1px;"/><path class="ytick ticks crisp" d="M80,0h0" transform="translate(0,506.46)" style="stroke: rgb(68, 68, 68); stroke-opacity: 1; stroke-width: 1px;"/><path class="ytick ticks crisp" d="M80,0h0" transform="translate(0,494.93)" style="stroke: rgb(68, 68, 68); stroke-opacity: 1; stroke-width: 1px;"/><path class="ytick ticks crisp" d="M80,0h0" transform="translate(0,484.25)" style="stroke: rgb(68, 68, 68); stroke-opacity: 1; stroke-width: 1px;"/><path class="ytick ticks crisp" d="M80,0h0" transform="translate(0,474.28)" style="stroke: rgb(68, 68, 68); stroke-opacity: 1; stroke-width: 1px;"/><path class="ytick ticks crisp" d="M80,0h0" transform="translate(0,464.96)" style="stroke: rgb(68, 68, 68); stroke-opacity: 1; stroke-width: 1px;"/><path class="ytick ticks crisp" d="M80,0h0" transform="translate(0,456.19)" style="stroke: rgb(68, 68, 68); stroke-opacity: 1; stroke-width: 1px;"/><path class="ytick ticks crisp" d="M80,0h0" transform="translate(0,447.91)" style="stroke: rgb(68, 68, 68); stroke-opacity: 1; stroke-width: 1px;"/><path class="ytick ticks crisp" d="M80,0h0" transform="translate(0,440.07)" style="stroke: rgb(68, 68, 68); stroke-opacity: 1; stroke-width: 1px;"/><path class="ytick ticks crisp" d="M80,0h0" transform="translate(0,432.64)" style="stroke: rgb(68, 68, 68); stroke-opacity: 1; stroke-width: 1px;"/><path class="ytick ticks crisp" d="M80,0h0" transform="translate(0,373.69)" style="stroke: rgb(68, 68, 68); stroke-opacity: 1; stroke-width: 1px;"/><path class="ytick ticks crisp" d="M80,0h0" transform="translate(0,331.74)" style="stroke: rgb(68, 68, 68); stroke-opacity: 1; stroke-width: 1px;"/><path class="ytick ticks crisp" d="M80,0h0" transform="translate(0,299.15)" style="stroke: rgb(68, 68, 68); stroke-opacity: 1; stroke-width: 1px;"/><path class="ytick ticks crisp" d="M80,0h0" transform="translate(0,272.5)" style="stroke: rgb(68, 68, 68); stroke-opacity: 1; stroke-width: 1px;"/><path class="ytick ticks crisp" d="M80,0h0" transform="translate(0,249.94)" style="stroke: rgb(68, 68, 68); stroke-opacity: 1; stroke-width: 1px;"/><path class="ytick ticks crisp" d="M80,0h0" transform="translate(0,230.4)" style="stroke: rgb(68, 68, 68); stroke-opacity: 1; stroke-width: 1px;"/><path class="ytick ticks crisp" d="M80,0h0" transform="translate(0,213.15)" style="stroke: rgb(68, 68, 68); stroke-opacity: 1; stroke-width: 1px;"/><path class="ytick ticks crisp" d="M80,0h0" transform="translate(0,197.72)" style="stroke: rgb(68, 68, 68); stroke-opacity: 1; stroke-width: 1px;"/><path class="ytick ticks crisp" d="M80,0h0" transform="translate(0,183.75)" style="stroke: rgb(68, 68, 68); stroke-opacity: 1; stroke-width: 1px;"/><path class="ytick ticks crisp" d="M80,0h0" transform="translate(0,171)" style="stroke: rgb(68, 68, 68); stroke-opacity: 1; stroke-width: 1px;"/><g class="ytick"><text text-anchor="middle" x="73" y="4.199999999999999" transform="translate(0,1314.42) rotate(90,73,-1.8000000000000007)" style="font-family: 'Open Sans', verdana, arial, sans-serif; font-size: 12px; fill: rgb(68, 68, 68); fill-opacity: 1; white-space: pre; opacity: 1;">2020</text></g><g class="ytick"><text text-anchor="middle" x="73" y="4.199999999999999" style="font-family: 'Open Sans', verdana, arial, sans-serif; font-size: 12px; fill: rgb(68, 68, 68); fill-opacity: 1; white-space: pre; opacity: 1;" transform="translate(0,1153.07) rotate(90,73,-1.8000000000000007)">2010</text></g><g class="ytick"><text text-anchor="middle" x="73" y="4.199999999999999" style="font-family: 'Open Sans', verdana, arial, sans-serif; font-size: 12px; fill: rgb(68, 68, 68); fill-opacity: 1; white-space: pre; opacity: 1;" transform="translate(0,1078.05) rotate(90,73,-1.8000000000000007)">2000</text></g><g class="ytick"><text text-anchor="middle" x="73" y="4.199999999999999" style="font-family: 'Open Sans', verdana, arial, sans-serif; font-size: 12px; fill: rgb(68, 68, 68); fill-opacity: 1; white-space: pre; opacity: 1;" transform="translate(0,841.67) rotate(90,73,-1.8000000000000007)">1900</text></g><g class="ytick"><text text-anchor="middle" x="73" y="4.199999999999999" style="font-family: 'Open Sans', verdana, arial, sans-serif; font-size: 12px; fill: rgb(68, 68, 68); fill-opacity: 1; white-space: pre; opacity: 1;" transform="translate(0,755.34) rotate(90,73,-1.8000000000000007)">1800</text></g><g class="ytick"><text text-anchor="middle" x="73" y="4.199999999999999" style="font-family: 'Open Sans', verdana, arial, sans-serif; font-size: 12px; fill: rgb(68, 68, 68); fill-opacity: 1; white-space: pre; opacity: 1;" transform="translate(0,630.9) rotate(90,73,-1.8000000000000007)">1500</text></g><g class="ytick"><text text-anchor="middle" x="73" y="4.199999999999999" style="font-family: 'Open Sans', verdana, arial, sans-serif; font-size: 12px; fill: rgb(68, 68, 68); fill-opacity: 1; white-space: pre; opacity: 1;" transform="translate(0,532.64) rotate(90,73,-1.8000000000000007)">1000</text></g><g class="ytick"><text text-anchor="middle" x="73" y="4.199999999999999" style="font-family: 'Open Sans', verdana, arial, sans-serif; font-size: 12px; fill: rgb(68, 68, 68); fill-opacity: 1; white-space: pre; opacity: 1;" transform="translate(0,432.64) rotate(90,73,-1.8000000000000007)">0</text></g><g class="ytick"><text text-anchor="middle" x="73" y="4.199999999999999" style="font-family: 'Open Sans', verdana, arial, sans-serif; font-size: 12px; fill: rgb(68, 68, 68); fill-opacity: 1; white-space: pre; opacity: 1;" transform="translate(0,331.74) rotate(90,73,-1.8000000000000007)">2000 BC</text></g></g><g class="overaxes-above"/></g></g><g class="polarlayer"/><g class="smithlayer"/><g class="ternarylayer"/><g class="geolayer"/><g class="funnelarealayer"/><g class="pielayer"/><g class="iciclelayer"/><g class="treemaplayer"/><g class="sunburstlayer"/><g class="glimages"/><defs id="topdefs-2a430c"><g class="clips"/></defs><g class="layer-above"><g class="imagelayer"/><g class="shapelayer"/></g><g class="infolayer"><g class="g-gtitle"/><g class="g-ytitle"/></g></svg>