<svg class="main-svg" xmlns="http://www.w3.org/2000/svg" xmlns:xlink="http://www.w3.org/1999/xlink" width="800" height="1600" style="" viewBox="0 0 800 1600"><rect x="0" y="0" width="800" height="1600" style="fill: rgb(255, 255, 255); fill-opacity: 1;"/><defs id="defs-57c726"><g class="clips"><clipPath id="clip57c726xyplot" class="plotclip"><rect width="640" height="1420"/></clipPath><clipPath class="axesclip" id="clip57c726x"><rect x="80" y="0" width="640" height="1600"/></clipPath><clipPath class="axesclip" id="clip57c726y"><rect x="0" y="100" width="800" height="1420"/></clipPath><clipPath class="axesclip" id="clip57c726xy"><rect x="80" y="100" width="640" height="1420"/></clipPath></g><g class="gradients"/><g class="patterns"/></defs><g class="bglayer"/><g class="layer-below"><g class="imagelayer"/><g class="shapelayer"/></g><g class="cartesianlayer"><g class="subplot xy"><g class="layer-subplot"><g class="shapelayer"/><g class="imagelayer"/></g><g class="minor-gridlayer"><g class="x"/><g class="y"><path class="ygrid crisp" transform="translate(0,1449)" d="M80,0h640" style="stroke: rgb(249, 249, 249); stroke-opacity: 1; stroke-width: 1px;"/><path class="ygrid crisp" transform="translate(0,1386.55)" d="M80,0h640" style="stroke: rgb(249, 249, 249); stroke-opacity: 1; stroke-width: 1px;"/><path class="ygrid crisp" transform="translate(0,1342.24)" d="M80,0h640" style="stroke: rgb(249, 249, 249); stroke-opacity: 1; stroke-width: 1px;"/><path class="ygrid crisp" transform="translate(0,1307.87)" d="M80,0h640" style="stroke: rgb(249, 249, 249); stroke-opacity: 1; stroke-width: 1px;"/><path class="ygrid crisp" transform="translate(0,1279.78)" d="M80,0h640" style="stroke: rgb(249, 249, 249); stroke-opacity: 1; stroke-width: 1px;"/><path class="ygrid crisp" transform="translate(0,1256.04)" d="M80,0h640" style="stroke: rgb(249, 249, 249); stroke-opacity: 1; stroke-width: 1px;"/><path class="ygrid crisp" transform="translate(0,1235.47)" d="M80,0h640" style="stroke: rgb(249, 249, 249); stroke-opacity: 1; stroke-width: 1px;"/><path class="ygrid crisp" transform="translate(0,1217.33)" d="M80,0h640" style="stroke: rgb(249, 249, 249); stroke-opacity: 1; stroke-width: 1px;"/><path class="ygrid crisp" transform="translate(0,1201.1)" d="M80,0h640" style="stroke: rgb(249, 249, 249); stroke-opacity: 1; stroke-width: 1px;"/><path class="ygrid crisp" transform="translate(0,1186.42)" d="M80,0h640" style="stroke: rgb(249, 249, 249); stroke-opacity: 1; stroke-width: 1px;"/><path class="ygrid crisp" transform="translate(0,1173.02)" d="M80,0h640" style="stroke: rgb(249, 249, 249); stroke-opacity: 1; stroke-width: 1px;"/><path class="ygrid crisp" transform="translate(0,1160.69)" d="M80,0h640" style="stroke: rgb(249, 249, 249); stroke-opacity: 1; stroke-width: 1px;"/><path class="ygrid crisp" transform="translate(0,1149.27)" d="M80,0h640" style="stroke: rgb(249, 249, 249); stroke-opacity: 1; stroke-width: 1px;"/><path class="ygrid crisp" transform="translate(0,1138.65)" d="M80,0h640" style="stroke: rgb(249, 249, 249); stroke-opacity: 1; stroke-width: 1px;"/><path class="ygrid crisp" transform="translate(0,1128.71)" d="M80,0h640" style="stroke: rgb(249, 249, 249); stroke-opacity: 1; stroke-width: 1px;"/><path class="ygrid crisp" transform="translate(0,1119.37)" d="M80,0h640" style="stroke: rgb(249, 249, 249); stroke-opacity: 1; stroke-width: 1px;"/><path class="ygrid crisp" transform="translate(0,1110.56)" d="M80,0h640" style="stroke: rgb(249, 249, 249); stroke-opacity: 1; stroke-width: 1px;"/><path class="ygrid crisp" transform="translate(0,1102.24)" d="M80,0h640" style="stroke: rgb(249, 249, 249); stroke-opacity: 1; stroke-width: 1px;"/><path class="ygrid crisp" transform="translate(0,1094.3400000000001)" d="M80,0h640" style="stroke: rgb(249, 249, 249); stroke-opacity: 1; stroke-width: 1px;"/><path class="ygrid crisp" transform="translate(0,1086.8200000000002)" d="M80,0h640" style="stroke: rgb(249, 249, 249); stroke-opacity: 1; stroke-width: 1px;"/><path class="ygrid crisp" transform="translate(0,1079.6599999999999)" d="M80,0h640" style="stroke: rgb(249, 249, 249); stroke-opacity: 1; stroke-width: 1px;"/><path class="ygrid crisp" transform="translate(0,1072.81)" d="M80,0h640" style="stroke: rgb(249, 249, 249); stroke-opacity: 1; stroke-width: 1px;"/><path class="ygrid crisp" transform="translate(0,1066.25)" d="M80,0h640" style="stroke: rgb(249, 249, 249); stroke-opacity: 1; stroke-width: 1px;"/><path class="ygrid crisp" transform="translate(0,1059.97)" d="M80,0h640" style="stroke: rgb(249, 249, 249); stroke-opacity: 1; stroke-width: 1px;"/><path class="ygrid crisp" transform="translate(0,1008.14)" d="M80,0h640" style="stroke: rgb(249, 249, 249); stroke-opacity: 1; stroke-width: 1px;"/><path class="ygrid crisp" transform="translate(0,969.43)" d="M80,0h640" style="stroke: rgb(249, 249, 249); stroke-opacity: 1; stroke-width: 1px;"/><path class="ygrid crisp" transform="translate(0,938.52)" d="M80,0h640" style="stroke: rgb(249, 249, 249); stroke-opacity: 1; stroke-width: 1px;"/><path class="ygrid crisp" transform="translate(0,912.79)" d="M80,0h640" style="stroke: rgb(249, 249, 249); stroke-opacity: 1; stroke-width: 1px;"/><path class="ygrid crisp" transform="translate(0,890.75)" d="M80,0h640" style="stroke: rgb(249, 249, 249); stroke-opacity: 1; stroke-width: 1px;"/><path class="ygrid crisp" transform="translate(0,871.47)" d="M80,0h640" style="stroke: rgb(249, 249, 249); stroke-opacity: 1; stroke-width: 1px;"/><path class="ygrid crisp" transform="translate(0,854.34)" d="M80,0h640" style="stroke: rgb(249, 249, 249); stroke-opacity: 1; stroke-width: 1px;"/><path class="ygrid crisp" transform="translate(0,838.92)" d="M80,0h640" style="stroke: rgb(249, 249, 249); stroke-opacity: 1; stroke-width: 1px;"/><path class="ygrid crisp" transform="translate(0,824.91)" d="M80,0h640" style="stroke: rgb(249, 249, 249); stroke-opacity: 1; stroke-width: 1px;"/><path class="ygrid crisp" transform="translate(0,812.07)" d="M80,0h640" style="stroke: rgb(249, 249, 249); stroke-opacity: 1; stroke-width: 1px;"/><path class="ygrid crisp" transform="translate(0,800.21)" d="M80,0h640" style="stroke: rgb(249, 249, 249); stroke-opacity: 1; stroke-width: 1px;"/><path class="ygrid crisp" transform="translate(0,789.21)" d="M80,0h640" style="stroke: rgb(249, 249, 249); stroke-opacity: 1; stroke-width: 1px;"/><path class="ygrid crisp" transform="translate(0,778.93)" d="M80,0h640" style="stroke: rgb(249, 249, 249); stroke-opacity: 1; stroke-width: 1px;"/><path class="ygrid crisp" transform="translate(0,769.3)" d="M80,0h640" style="stroke: rgb(249, 249, 249); stroke-opacity: 1; stroke-width: 1px;"/><path class="ygrid crisp" transform="translate(0,760.24)" d="M80,0h640" style="stroke: rgb(249, 249, 249); stroke-opacity: 1; stroke-width: 1px;"/><path class="ygrid crisp" transform="translate(0,751.68)" d="M80,0h640" style="stroke: rgb(249, 249, 249); stroke-opacity: 1; stroke-width: 1px;"/><path class="ygrid crisp" transform="translate(0,743.57)" d="M80,0h640" style="stroke: rgb(249, 249, 249); stroke-opacity: 1; stroke-width: 1px;"/><path class="ygrid crisp" transform="translate(0,735.87)" d="M80,0h640" style="stroke: rgb(249, 249, 249); stroke-opacity: 1; stroke-width: 1px;"/><path class="ygrid crisp" transform="translate(0,728.53)" d="M80,0h640" style="stroke: rgb(249, 249, 249); stroke-opacity: 1; stroke-width: 1px;"/><path class="ygrid crisp" transform="translate(0,721.53)" d="M80,0h640" style="stroke: rgb(249, 249, 249); stroke-opacity: 1; stroke-width: 1px;"/><path class="ygrid crisp" transform="translate(0,664.89)" d="M80,0h640" style="stroke: rgb(249, 249, 249); stroke-opacity: 1; stroke-width: 1px;"/><path class="ygrid crisp" transform="translate(0,623.57)" d="M80,0h640" style="stroke: rgb(249, 249, 249); stroke-opacity: 1; stroke-width: 1px;"/><path class="ygrid crisp" transform="translate(0,591.02)" d="M80,0h640" style="stroke: rgb(249, 249, 249); stroke-opacity: 1; stroke-width: 1px;"/><path class="ygrid crisp" transform="translate(0,564.1700000000001)" d="M80,0h640" style="stroke: rgb(249, 249, 249); stroke-opacity: 1; stroke-width: 1px;"/><path class="ygrid crisp" transform="translate(0,541.31)" d="M80,0h640" style="stroke: rgb(249, 249, 249); stroke-opacity: 1; stroke-width: 1px;"/><path class="ygrid crisp" transform="translate(0,521.4)" d="M80,0h640" style="stroke: rgb(249, 249, 249); stroke-opacity: 1; stroke-width: 1px;"/><path class="ygrid crisp" transform="translate(0,503.78)" d="M80,0h640" style="stroke: rgb(249, 249, 249); stroke-opacity: 1; stroke-width: 1px;"/><path class="ygrid crisp" transform="translate(0,487.97)" d="M80,0h640" style="stroke: rgb(249, 249, 249); stroke-opacity: 1; stroke-width: 1px;"/><path class="ygrid crisp" transform="translate(0,473.63)" d="M80,0h640" style="stroke: rgb(249, 249, 249); stroke-opacity: 1; stroke-width: 1px;"/><path class="ygrid crisp" transform="translate(0,460.52)" d="M80,0h640" style="stroke: rgb(249, 249, 249); stroke-opacity: 1; stroke-width: 1px;"/><path class="ygrid crisp" transform="translate(0,448.43)" d="M80,0h640" style="stroke: rgb(249, 249, 249); stroke-opacity: 1; stroke-width: 1px;"/><path class="ygrid crisp" transform="translate(0,437.22)" d="M80,0h640" style="stroke: rgb(249, 249, 249); stroke-opacity: 1; stroke-width: 1px;"/><path class="ygrid crisp" transform="translate(0,426.77)" d="M80,0h640" style="stroke: rgb(249, 249, 249); stroke-opacity: 1; stroke-width: 1px;"/><path class="ygrid crisp" transform="translate(0,416.99)" d="M80,0h640" style="stroke: rgb(249, 249, 249); stroke-opacity: 1; stroke-width: 1px;"/><path class="ygrid crisp" transform="translate(0,407.79)" d="M80,0h640" style="stroke: rgb(249, 249, 249); stroke-opacity: 1; stroke-width: 1px;"/><path class="ygrid crisp" transform="translate(0,399.11)" d="M80,0h640" style="stroke: rgb(249, 249, 249); stroke-opacity: 1; stroke-width: 1px;"/><path class="ygrid crisp" transform="translate(0,390.9)" d="M80,0h640" style="stroke: rgb(249, 249, 249); stroke-opacity: 1; stroke-width: 1px;"/><path class="ygrid crisp" transform="translate(0,383.1)" d="M80,0h640" style="stroke: rgb(249, 249, 249); stroke-opacity: 1; stroke-width: 1px;"/><path class="ygrid crisp" transform="translate(0,321.28)" d="M80,0h640" style="stroke: rgb(249, 249, 249); stroke-opacity: 1; stroke-width: 1px;"/><path class="ygrid crisp" transform="translate(0,277.28999999999996)" d="M80,0h640" style="stroke: rgb(249, 249, 249); stroke-opacity: 1; stroke-width: 1px;"/><path class="ygrid crisp" transform="translate(0,243.11)" d="M80,0h640" style="stroke: rgb(249, 249, 249); stroke-opacity: 1; stroke-width: 1px;"/><path class="ygrid crisp" transform="translate(0,215.15)" d="M80,0h640" style="stroke: rgb(249, 249, 249); stroke-opacity: 1; stroke-width: 1px;"/><path class="ygrid crisp" transform="translate(0,191.5)" d="M80,0h640" style="stroke: rgb(249, 249, 249); stroke-opacity: 1; stroke-width: 1px;"/><path class="ygrid crisp" transform="translate(0,171)" d="M80,0h640" style="stroke: rgb(249, 249, 249); stroke-opacity: 1; stroke-width: 1px;"/><path class="ygrid crisp" transform="translate(0,152.91)" d="M80,0h640" style="stroke: rgb(249, 249, 249); stroke-opacity: 1; stroke-width: 1px;"/><path class="ygrid crisp" transform="translate(0,136.73)" d="M80,0h640" style="stroke: rgb(249, 249, 249); stroke-opacity: 1; stroke-width: 1px;"/><path class="ygrid crisp" transform="translate(0,122.08)" d="M80,0h640" style="stroke: rgb(249, 249, 249); stroke-opacity: 1; stroke-width: 1px;"/><path class="ygrid crisp" transform="translate(0,108.71000000000001)" d="M80,0h640" style="stroke: rgb(249, 249, 249); stroke-opacity: 1; stroke-width: 1px;"/></g></g><g class="gridlayer"><g class="x"/><g class="y"><path class="ygrid crisp" transform="translate(0,1307.87)" d="M80,0h640" style="stroke: rgb(238, 238, 238); stroke-opacity: 1; stroke-width: 1px;"/><path class="ygrid crisp" transform="translate(0,1138.65)" d="M80,0h640" style="stroke: rgb(238, 238, 238); stroke-opacity: 1; stroke-width: 1px;"/><path class="ygrid crisp" transform="translate(0,1059.97)" d="M80,0h640" style="stroke: rgb(238, 238, 238); stroke-opacity: 1; stroke-width: 1px;"/><path class="ygrid crisp" transform="translate(0,812.07)" d="M80,0h640" style="stroke: rgb(238, 238, 238); stroke-opacity: 1; stroke-width: 1px;"/><path class="ygrid crisp" transform="translate(0,721.53)" d="M80,0h640" style="stroke: rgb(238, 238, 238); stroke-opacity: 1; stroke-width: 1px;"/><path class="ygrid crisp" transform="translate(0,591.02)" d="M80,0h640" style="stroke: rgb(238, 238, 238); stroke-opacity: 1; stroke-width: 1px;"/><path class="ygrid crisp" transform="translate(0,487.97)" d="M80,0h640" style="stroke: rgb(238, 238, 238); stroke-opacity: 1; stroke-width: 1px;"/><path class="ygrid crisp" transform="translate(0,383.1)" d="M80,0h640" style="stroke: rgb(238, 238, 238); stroke-opacity: 1; stroke-width: 1px;"/><path class="ygrid crisp" transform="translate(0,277.28999999999996)" d="M80,0h640" style="stroke: rgb(238, 238, 238); stroke-opacity: 1; stroke-width: 1px;"/></g></g><g class="zerolinelayer"/><path class="xlines-below"/><path class="ylines-below"/><g class="overlines-below"/><g class="xaxislayer-below"/><g class="yaxislayer-below"/><g class="overaxes-below"/><g class="plot" transform="translate(80,100)"><g class="barlayer mlayer"><g class="trace bars" style="opacity: 1;"><g class="points"><g class="point"><path d="M9.29,1349V71H11.35V1349Z" clip-path="url(#clip57c726xyplot)" style="vector-effect: none; opacity: 1; stroke-width: 0px; fill: rgb(31, 119, 180); fill-opacity: 1;"/><text class="bartext bartext-outside" text-anchor="middle" data-notex="1" x="0" y="0" style="font-family: 'Open Sans', verdana, arial, sans-serif; font-size: 12px; fill: rgb(68, 68, 68); fill-opacity: 1; white-space: pre;" transform="translate(10.32,40.75)rotate(90 0 -4.75)">Stilt House </text></g><g class="point"><path d="M29.94,1349V115.15H32V1349Z" clip-path="url(#clip57c726xyplot)" style="vector-effect: none; opacity: 1; stroke-width: 0px; fill: rgb(31, 119, 180); fill-opacity: 1;"/><text class="bartext bartext-outside" text-anchor="middle" data-notex="1" x="0" y="0" style="font-family: 'Open Sans', verdana, arial, sans-serif; font-size: 12px; fill: rgb(68, 68, 68); fill-opacity: 1; white-space: pre;" transform="translate(30.97,88.0875)rotate(90 0 -4.75)">Mud Brick </text></g><g class="point"><path d="M50.58,280.83V140.07H52.65V280.83Z" clip-path="url(#clip57c726xyplot)" style="vector-effect: none; opacity: 1; stroke-width: 0px; fill: rgb(31, 119, 180); fill-opacity: 1;"/><text class="bartext bartext-outside" text-anchor="middle" data-notex="1" x="0" y="0" style="font-family: 'Open Sans', verdana, arial, sans-serif; font-size: 12px; fill: rgb(68, 68, 68); fill-opacity: 1; white-space: pre;" transform="translate(51.614999999999995,91.960625)rotate(90 0 -4.75)">Ancient Egyptian </text></g><g class="point"><path d="M71.23,496.7V177.29H73.29V496.7Z" clip-path="url(#clip57c726xyplot)" style="vector-effect: none; opacity: 1; stroke-width: 0px; fill: rgb(31, 119, 180); fill-opacity: 1;"/><text class="bartext bartext-outside" text-anchor="middle" data-notex="1" x="0" y="0" style="font-family: 'Open Sans', verdana, arial, sans-serif; font-size: 12px; fill: rgb(68, 68, 68); fill-opacity: 1; white-space: pre;" transform="translate(72.26,136.774375)rotate(90 0 -4.75)">Mesoamerican </text></g><g class="point"><path d="M91.87,272.37V226.46H93.94V272.37Z" clip-path="url(#clip57c726xyplot)" style="vector-effect: none; opacity: 1; stroke-width: 0px; fill: rgb(31, 119, 180); fill-opacity: 1;"/><text class="bartext bartext-outside" text-anchor="middle" data-notex="1" x="0" y="0" style="font-family: 'Open Sans', verdana, arial, sans-serif; font-size: 12px; fill: rgb(68, 68, 68); fill-opacity: 1; white-space: pre;" transform="translate(92.905,186.663125)rotate(90 0 -4.75)">Ancient Greek </text></g><g class="point"><path d="M112.52,337.22V243.12H114.58V337.22Z" clip-path="url(#clip57c726xyplot)" style="vector-effect: none; opacity: 1; stroke-width: 0px; fill: rgb(31, 119, 180); fill-opacity: 1;"/><text class="bartext bartext-outside" text-anchor="middle" data-notex="1" x="0" y="0" style="font-family: 'Open Sans', verdana, arial, sans-serif; font-size: 12px; fill: rgb(68, 68, 68); fill-opacity: 1; white-space: pre;" transform="translate(113.55,223.823125)rotate(90 0 -4.75)">Persian </text></g><g class="point"><path d="M133.16,324.37V261.82H135.23V324.37Z" clip-path="url(#clip57c726xyplot)" style="vector-effect: none; opacity: 1; stroke-width: 0px; fill: rgb(31, 119, 180); fill-opacity: 1;"/><text class="bartext bartext-outside" text-anchor="middle" data-notex="1" x="0" y="0" style="font-family: 'Open Sans', verdana, arial, sans-serif; font-size: 12px; fill: rgb(68, 68, 68); fill-opacity: 1; white-space: pre;" transform="translate(134.195,218.8825)rotate(90 0 -4.75)">Ancient Roman </text></g><g class="point"><path d="M153.81,331.91V309.59H155.87V331.91Z" clip-path="url(#clip57c726xyplot)" style="vector-effect: none; opacity: 1; stroke-width: 0px; fill: rgb(31, 119, 180); fill-opacity: 1;"/><text class="bartext bartext-outside" text-anchor="middle" data-notex="1" x="0" y="0" style="font-family: 'Open Sans', verdana, arial, sans-serif; font-size: 12px; fill: rgb(68, 68, 68); fill-opacity: 1; white-space: pre;" transform="translate(154.84,294.074375)rotate(90 0 -4.75)">Gupta </text></g><g class="point"><path d="M174.45,727.61V339.18H176.52V727.61Z" clip-path="url(#clip57c726xyplot)" style="vector-effect: none; opacity: 1; stroke-width: 0px; fill: rgb(31, 119, 180); fill-opacity: 1;"/><text class="bartext bartext-outside" text-anchor="middle" data-notex="1" x="0" y="0" style="font-family: 'Open Sans', verdana, arial, sans-serif; font-size: 12px; fill: rgb(68, 68, 68); fill-opacity: 1; white-space: pre;" transform="translate(175.485,290.8675)rotate(90 0 -4.75)">Chinese Imperial </text></g><g class="point"><path d="M195.1,421.4V360.52H197.16V421.4Z" clip-path="url(#clip57c726xyplot)" style="vector-effect: none; opacity: 1; stroke-width: 0px; fill: rgb(31, 119, 180); fill-opacity: 1;"/><text class="bartext bartext-outside" text-anchor="middle" data-notex="1" x="0" y="0" style="font-family: 'Open Sans', verdana, arial, sans-serif; font-size: 12px; fill: rgb(68, 68, 68); fill-opacity: 1; white-space: pre;" transform="translate(196.13,324.30125)rotate(90 0 -4.75)">Romanesque </text></g><g class="point"><path d="M215.74,621.53V360.52H217.81V621.53Z" clip-path="url(#clip57c726xyplot)" style="vector-effect: none; opacity: 1; stroke-width: 0px; fill: rgb(31, 119, 180); fill-opacity: 1;"/><text class="bartext bartext-outside" text-anchor="middle" data-notex="1" x="0" y="0" style="font-family: 'Open Sans', verdana, arial, sans-serif; font-size: 12px; fill: rgb(68, 68, 68); fill-opacity: 1; white-space: pre;" transform="translate(216.775,341.80125)rotate(90 0 -4.75)">Swahili </text></g><g class="point"><path d="M236.39,472V363.69H238.45V472Z" clip-path="url(#clip57c726xyplot)" style="vector-effect: none; opacity: 1; stroke-width: 0px; fill: rgb(31, 119, 180); fill-opacity: 1;"/><text class="bartext bartext-outside" text-anchor="middle" data-notex="1" x="0" y="0" style="font-family: 'Open Sans', verdana, arial, sans-serif; font-size: 12px; fill: rgb(68, 68, 68); fill-opacity: 1; white-space: pre;" transform="translate(237.42,323.143125)rotate(90 0 -4.75)">Khmer Empire </text></g><g class="point"><path d="M257.03,1349V387.97H259.1V1349Z" clip-path="url(#clip57c726xyplot)" style="vector-effect: none; opacity: 1; stroke-width: 0px; fill: rgb(31, 119, 180); fill-opacity: 1;"/><text class="bartext bartext-outside" text-anchor="middle" data-notex="1" x="0" y="0" style="font-family: 'Open Sans', verdana, arial, sans-serif; font-size: 12px; fill: rgb(68, 68, 68); fill-opacity: 1; white-space: pre;" transform="translate(258.065,377.860625)rotate(90 0 -4.75)">Thai </text></g><g class="point"><path d="M277.68,491.02V403.78H279.74V491.02Z" clip-path="url(#clip57c726xyplot)" style="vector-effect: none; opacity: 1; stroke-width: 0px; fill: rgb(31, 119, 180); fill-opacity: 1;"/><text class="bartext bartext-outside" text-anchor="middle" data-notex="1" x="0" y="0" style="font-family: 'Open Sans', verdana, arial, sans-serif; font-size: 12px; fill: rgb(68, 68, 68); fill-opacity: 1; white-space: pre;" transform="translate(278.71000000000004,387.18625)rotate(90 0 -4.75)">Gothic </text></g><g class="point"><path d="M298.32,493.09V456.95H300.39V493.09Z" clip-path="url(#clip57c726xyplot)" style="vector-effect: none; opacity: 1; stroke-width: 0px; fill: rgb(31, 119, 180); fill-opacity: 1;"/><text class="bartext bartext-outside" text-anchor="middle" data-notex="1" x="0" y="0" style="font-family: 'Open Sans', verdana, arial, sans-serif; font-size: 12px; fill: rgb(68, 68, 68); fill-opacity: 1; white-space: pre;" transform="translate(299.355,415.778125)rotate(90 0 -4.75)">Timurid Period </text></g><g class="point"><path d="M318.97,523.57V464.17H321.03V523.57Z" clip-path="url(#clip57c726xyplot)" style="vector-effect: none; opacity: 1; stroke-width: 0px; fill: rgb(31, 119, 180); fill-opacity: 1;"/><text class="bartext bartext-outside" text-anchor="middle" data-notex="1" x="0" y="0" style="font-family: 'Open Sans', verdana, arial, sans-serif; font-size: 12px; fill: rgb(68, 68, 68); fill-opacity: 1; white-space: pre;" transform="translate(320,429.654375)rotate(90 0 -4.75)">Renaissance </text></g><g class="point"><path d="M339.61,561.15V465.9H341.68V561.15Z" clip-path="url(#clip57c726xyplot)" style="vector-effect: none; opacity: 1; stroke-width: 0px; fill: rgb(31, 119, 180); fill-opacity: 1;"/><text class="bartext bartext-outside" text-anchor="middle" data-notex="1" x="0" y="0" style="font-family: 'Open Sans', verdana, arial, sans-serif; font-size: 12px; fill: rgb(68, 68, 68); fill-opacity: 1; white-space: pre;" transform="translate(340.645,438.65)rotate(90 0 -4.75)">Muscovite </text></g><g class="point"><path d="M360.26,590.62V517.88H362.32V590.62Z" clip-path="url(#clip57c726xyplot)" style="vector-effect: none; opacity: 1; stroke-width: 0px; fill: rgb(31, 119, 180); fill-opacity: 1;"/><text class="bartext bartext-outside" text-anchor="middle" data-notex="1" x="0" y="0" style="font-family: 'Open Sans', verdana, arial, sans-serif; font-size: 12px; fill: rgb(68, 68, 68); fill-opacity: 1; white-space: pre;" transform="translate(361.28999999999996,495.489375)rotate(90 0 -4.75)">Baroque </text></g><g class="point"><path d="M380.9,784.71V523.57H382.97V784.71Z" clip-path="url(#clip57c726xyplot)" style="vector-effect: none; opacity: 1; stroke-width: 0px; fill: rgb(31, 119, 180); fill-opacity: 1;"/><text class="bartext bartext-outside" text-anchor="middle" data-notex="1" x="0" y="0" style="font-family: 'Open Sans', verdana, arial, sans-serif; font-size: 12px; fill: rgb(68, 68, 68); fill-opacity: 1; white-space: pre;" transform="translate(381.935,502.39812500000005)rotate(90 0 -4.75)">Colonial </text></g><g class="point"><path d="M401.55,545.75V524.66H403.61V545.75Z" clip-path="url(#clip57c726xyplot)" style="vector-effect: none; opacity: 1; stroke-width: 0px; fill: rgb(31, 119, 180); fill-opacity: 1;"/><text class="bartext bartext-outside" text-anchor="middle" data-notex="1" x="0" y="0" style="font-family: 'Open Sans', verdana, arial, sans-serif; font-size: 12px; fill: rgb(68, 68, 68); fill-opacity: 1; white-space: pre;" transform="translate(402.58000000000004,495.23812499999997)rotate(90 0 -4.75)">Edo Period </text></g><g class="point"><path d="M422.19,723.58V585.12H424.26V723.58Z" clip-path="url(#clip57c726xyplot)" style="vector-effect: none; opacity: 1; stroke-width: 0px; fill: rgb(31, 119, 180); fill-opacity: 1;"/><text class="bartext bartext-outside" text-anchor="middle" data-notex="1" x="0" y="0" style="font-family: 'Open Sans', verdana, arial, sans-serif; font-size: 12px; fill: rgb(68, 68, 68); fill-opacity: 1; white-space: pre;" transform="translate(423.225,551.40125)rotate(90 0 -4.75)">Neoclassical </text></g><g class="point"><path d="M442.84,784.71V618.15H444.9V784.71Z" clip-path="url(#clip57c726xyplot)" style="vector-effect: none; opacity: 1; stroke-width: 0px; fill: rgb(31, 119, 180); fill-opacity: 1;"/><text class="bartext bartext-outside" text-anchor="middle" data-notex="1" x="0" y="0" style="font-family: 'Open Sans', verdana, arial, sans-serif; font-size: 12px; fill: rgb(68, 68, 68); fill-opacity: 1; white-space: pre;" transform="translate(443.87,575.2125)rotate(90 0 -4.75)">Indo-Saracenic </text></g><g class="point"><path d="M463.48,713.3V649.2H465.55V713.3Z" clip-path="url(#clip57c726xyplot)" style="vector-effect: none; opacity: 1; stroke-width: 0px; fill: rgb(31, 119, 180); fill-opacity: 1;"/><text class="bartext bartext-outside" text-anchor="middle" data-notex="1" x="0" y="0" style="font-family: 'Open Sans', verdana, arial, sans-serif; font-size: 12px; fill: rgb(68, 68, 68); fill-opacity: 1; white-space: pre;" transform="translate(464.515,625.340625)rotate(90 0 -4.75)">Victorian </text></g><g class="point"><path d="M484.13,754.34V689.21H486.19V754.34Z" clip-path="url(#clip57c726xyplot)" style="vector-effect: none; opacity: 1; stroke-width: 0px; fill: rgb(31, 119, 180); fill-opacity: 1;"/><text class="bartext bartext-outside" text-anchor="middle" data-notex="1" x="0" y="0" style="font-family: 'Open Sans', verdana, arial, sans-serif; font-size: 12px; fill: rgb(68, 68, 68); fill-opacity: 1; white-space: pre;" transform="translate(485.15999999999997,644.17875)rotate(90 0 -4.75)">Colonial Revival </text></g><g class="point"><path d="M504.77,730.36V700.21H506.84V730.36Z" clip-path="url(#clip57c726xyplot)" style="vector-effect: none; opacity: 1; stroke-width: 0px; fill: rgb(31, 119, 180); fill-opacity: 1;"/><text class="bartext bartext-outside" text-anchor="middle" data-notex="1" x="0" y="0" style="font-family: 'Open Sans', verdana, arial, sans-serif; font-size: 12px; fill: rgb(68, 68, 68); fill-opacity: 1; white-space: pre;" transform="translate(505.80499999999995,665.256875)rotate(90 0 -4.75)">Art Nouveau </text></g><g class="point"><path d="M525.42,754.34V734.58H527.48V754.34Z" clip-path="url(#clip57c726xyplot)" style="vector-effect: none; opacity: 1; stroke-width: 0px; fill: rgb(31, 119, 180); fill-opacity: 1;"/><text class="bartext bartext-outside" text-anchor="middle" data-notex="1" x="0" y="0" style="font-family: 'Open Sans', verdana, arial, sans-serif; font-size: 12px; fill: rgb(68, 68, 68); fill-opacity: 1; white-space: pre;" transform="translate(526.45,692.439375)rotate(90 0 -4.75)">Constructivism </text></g><g class="point"><path d="M546.06,759.28V737.46H548.13V759.28Z" clip-path="url(#clip57c726xyplot)" style="vector-effect: none; opacity: 1; stroke-width: 0px; fill: rgb(31, 119, 180); fill-opacity: 1;"/><text class="bartext bartext-outside" text-anchor="middle" data-notex="1" x="0" y="0" style="font-family: 'Open Sans', verdana, arial, sans-serif; font-size: 12px; fill: rgb(68, 68, 68); fill-opacity: 1; white-space: pre;" transform="translate(547.095,714.256875)rotate(90 0 -4.75)">Bauhaus </text></g><g class="point"><path d="M566.71,769.67V738.92H568.77V769.67Z" clip-path="url(#clip57c726xyplot)" style="vector-effect: none; opacity: 1; stroke-width: 0px; fill: rgb(31, 119, 180); fill-opacity: 1;"/><text class="bartext bartext-outside" text-anchor="middle" data-notex="1" x="0" y="0" style="font-family: 'Open Sans', verdana, arial, sans-serif; font-size: 12px; fill: rgb(68, 68, 68); fill-opacity: 1; white-space: pre;" transform="translate(567.74,715.45125)rotate(90 0 -4.75)">Art Deco </text></g><g class="point"><path d="M587.35,1349V741.88H589.42V1349Z" clip-path="url(#clip57c726xyplot)" style="vector-effect: none; opacity: 1; stroke-width: 0px; fill: rgb(31, 119, 180); fill-opacity: 1;"/><text class="bartext bartext-outside" text-anchor="middle" data-notex="1" x="0" y="0" style="font-family: 'Open Sans', verdana, arial, sans-serif; font-size: 12px; fill: rgb(68, 68, 68); fill-opacity: 1; white-space: pre;" transform="translate(588.385,698.520625)rotate(90 0 -4.75)">Modern Islamic </text></g><g class="point"><path d="M608,838.52V790.75H610.06V838.52Z" clip-path="url(#clip57c726xyplot)" style="vector-effect: none; opacity: 1; stroke-width: 0px; fill: rgb(31, 119, 180); fill-opacity: 1;"/><text class="bartext bartext-outside" text-anchor="middle" data-notex="1" x="0" y="0" style="font-family: 'Open Sans', verdana, arial, sans-serif; font-size: 12px; fill: rgb(68, 68, 68); fill-opacity: 1; white-space: pre;" transform="translate(609.03,764.6875)rotate(90 0 -4.75)">Brutalism </text></g><g class="point"><path d="M628.65,1349V790.75H630.71V1349Z" clip-path="url(#clip57c726xyplot)" style="vector-effect: none; opacity: 1; stroke-width: 0px; fill: rgb(31, 119, 180); fill-opacity: 1;"/><text class="bartext bartext-outside" text-anchor="middle" data-notex="1" x="0" y="0" style="font-family: 'Open Sans', verdana, arial, sans-serif; font-size: 12px; fill: rgb(68, 68, 68); fill-opacity: 1; white-space: pre;" transform="translate(629.6800000000001,750.328125)rotate(90 0 -4.75)">Contemporary </text></g></g></g></g></g><g class="overplot"/><path class="xlines-above crisp" d="M0,0" style="fill: none;"/><path class="ylines-above crisp" d="M0,0" style="fill: none;"/><g class="overlines-above"/><g class="xaxislayer-above"/><g class="yaxislayer-above"><path class="ytick ticks crisp" d="M80,0h0" transform="translate(0,1449)" style="stroke: rgb(68, 68, 68); stroke-opacity: 1; stroke-width: 1px;"/><path class="ytick ticks crisp" d="M80,0h0" transform="translate(0,1386.55)" style="stroke: rgb(68, 68, 68); stroke-opacity: 1; stroke-width: 1px;"/><path class="ytick ticks crisp" d="M80,0h0" transform="translate(0,1342.24)" style="stroke: rgb(68, 68, 68); stroke-opacity: 1; stroke-width: 1px;"/><path class="ytick ticks crisp" d="M80,0h0" transform="translate(0,1307.87)" style="stroke: rgb(68, 68, 68); stroke-opacity: 1; stroke-width: 1px;"/><path class="ytick ticks crisp" d="M80,0h0" transform="translate(0,1279.78)" style="stroke: rgb(68, 68, 68); stroke-opacity: 1; stroke-width: 1px;"/><path class="ytick ticks crisp" d="M80,0h0" transform="translate(0,1256.04)" style="stroke: rgb(68, 68, 68); stroke-opacity: 1; stroke-width: 1px;"/><path class="ytick ticks crisp" d="M80,0h0" transform="translate(0,1235.47)" style="stroke: rgb(68, 68, 68); stroke-opacity: 1; stroke-width: 1px;"/><path class="ytick ticks crisp" d="M80,0h0" transform="translate(0,1217.33)" style="stroke: rgb(68, 68, 68); stroke-opacity: 1; stroke-width: 1px;"/><path class="ytick ticks crisp" d="M80,0h0" transform="translate(0,1201.1)" style="stroke: rgb(68, 68, 68); stroke-opacity: 1; stroke-width: 1px;"/><path class="ytick ticks crisp" d="M80,0h0" transform="translate(0,1186.42)" style="stroke: rgb(68, 68, 68); stroke-opacity: 1; stroke-width: 1px;"/><path class="ytick ticks crisp" d="M80,0h0" transform="translate(0,1173.02)" style="stroke: rgb(68, 68, 68); stroke-opacity: 1; stroke-width: 1px;"/><path class="ytick ticks crisp" d="M80,0h0" transform="translate(0,1160.69)" style="stroke: rgb(68, 68, 68); stroke-opacity: 1; stroke-width: 1px;"/><path class="ytick ticks crisp" d="M80,0h0" transform="translate(0,1149.27)" style="stroke: rgb(68, 68, 68); stroke-opacity: 1; stroke-width: 1px;"/><path class="ytick ticks crisp" d="M80,0h0" transform="translate(0,1138.65)" style="stroke: rgb(68, 68, 68); stroke-opacity: 1; stroke-width: 1px;"/><path class="ytick ticks crisp" d="M80,0h0" transform="translate(0,1128.71)" style="stroke: rgb(68, 68, 68); stroke-opacity: 1; stroke-width: 1px;"/><path class="ytick ticks crisp" d="M80,0h0" transform="translate(0,1119.37)" style="stroke: rgb(68, 68, 68); stroke-opacity: 1; stroke-width: 1px;"/><path class="ytick ticks crisp" d="M80,0h0" transform="translate(0,1110.56)" style="stroke: rgb(68, 68, 68); stroke-opacity: 1; stroke-width: 1px;"/><path class="ytick ticks crisp" d="M80,0h0" transform="translate(0,1102.24)" style="stroke: rgb(68, 68, 68); stroke-opacity: 1; stroke-width: 1px;"/><path class="ytick ticks crisp" d="M80,0h0" transform="translate(0,1094.3400000000001)" style="stroke: rgb(68, 68, 68); stroke-opacity: 1; stroke-width: 1px;"/><path class="ytick ticks crisp" d="M80,0h0" transform="translate(0,1086.8200000000002)" style="stroke: rgb(68, 68, 68); stroke-opacity: 1; stroke-width: 1px;"/><path class="ytick ticks crisp" d="M80,0h0" transform="translate(0,1079.6599999999999)" style="stroke: rgb(68, 68, 68); stroke-opacity: 1; stroke-width: 1px;"/><path class="ytick ticks crisp" d="M80,0h0" transform="translate(0,1072.81)" style="stroke: rgb(68, 68, 68); stroke-opacity: 1; stroke-width: 1px;"/><path class="ytick ticks crisp" d="M80,0h0" transform="translate(0,1066.25)" style="stroke: rgb(68, 68, 68); stroke-opacity: 1; stroke-width: 1px;"/><path class="ytick ticks crisp" d="M80,0h0" transform="translate(0,1059.97)" style="stroke: rgb(68, 68, 68); stroke-opacity: 1; stroke-width: 1px;"/><path class="ytick ticks crisp" d="M80,0h0" transform="translate(0,1008.14)" style="stroke: rgb(68, 68, 68); stroke-opacity: 1; stroke-width: 1px;"/><path class="ytick ticks crisp" d="M80,0h0" transform="translate(0,969.43)" style="stroke: rgb(68, 68, 68); stroke-opacity: 1; stroke-width: 1px;"/><path class="ytick ticks crisp" d="M80,0h0" transform="translate(0,938.52)" style="stroke: rgb(68, 68, 68); stroke-opacity: 1; stroke-width: 1px;"/><path class="ytick ticks crisp" d="M80,0h0" transform="translate(0,912.79)" style="stroke: rgb(68, 68, 68); stroke-opacity: 1; stroke-width: 1px;"/><path class="ytick ticks crisp" d="M80,0h0" transform="translate(0,890.75)" style="stroke: rgb(68, 68, 68); stroke-opacity: 1; stroke-width: 1px;"/><path class="ytick ticks crisp" d="M80,0h0" transform="translate(0,871.47)" style="stroke: rgb(68, 68, 68); stroke-opacity: 1; stroke-width: 1px;"/><path class="ytick ticks crisp" d="M80,0h0" transform="translate(0,854.34)" style="stroke: rgb(68, 68, 68); stroke-opacity: 1; stroke-width: 1px;"/><path class="ytick ticks crisp" d="M80,0h0" transform="translate(0,838.92)" style="stroke: rgb(68, 68, 68); stroke-opacity: 1; stroke-width: 1px;"/><path class="ytick ticks crisp" d="M80,0h0" transform="translate(0,824.91)" style="stroke: rgb(68, 68, 68); stroke-opacity: 1; stroke-width: 1px;"/><path class="ytick ticks crisp" d="M80,0h0" transform="translate(0,812.07)" style="stroke: rgb(68, 68, 68); stroke-opacity: 1; stroke-width: 1px;"/><path class="ytick ticks crisp" d="M80,0h0" transform="translate(0,800.21)" style="stroke: rgb(68, 68, 68); stroke-opacity: 1; stroke-width: 1px;"/><path class="ytick ticks crisp" d="M80,0h0" transform="translate(0,789.21)" style="stroke: rgb(68, 68, 68); stroke-opacity: 1; stroke-width: 1px;"/><path class="ytick ticks crisp" d="M80,0h0" transform="translate(0,778.93)" style="stroke: rgb(68, 68, 68); stroke-opacity: 1; stroke-width: 1px;"/><path class="ytick ticks crisp" d="M80,0h0" transform="translate(0,769.3)" style="stroke: rgb(68, 68, 68); stroke-opacity: 1; stroke-width: 1px;"/><path class="ytick ticks crisp" d="M80,0h0" transform="translate(0,760.24)" style="stroke: rgb(68, 68, 68); stroke-opacity: 1; stroke-width: 1px;"/><path class="ytick ticks crisp" d="M80,0h0" transform="translate(0,751.68)" style="stroke: rgb(68, 68, 68); stroke-opacity: 1; stroke-width: 1px;"/><path class="ytick ticks crisp" d="M80,0h0" transform="translate(0,743.57)" style="stroke: rgb(68, 68, 68); stroke-opacity: 1; stroke-width: 1px;"/><path class="ytick ticks crisp" d="M80,0h0" transform="translate(0,735.87)" style="stroke: rgb(68, 68, 68); stroke-opacity: 1; stroke-width: 1px;"/><path class="ytick ticks crisp" d="M80,0h0" transform="translate(0,728.53)" style="stroke: rgb(68, 68, 68); stroke-opacity: 1; stroke-width: 1px;"/><path class="ytick ticks crisp" d="M80,0h0" transform="translate(0,721.53)" style="stroke: rgb(68, 68, 68); stroke-opacity: 1; stroke-width: 1px;"/><path class="ytick ticks crisp" d="M80,0h0" transform="translate(0,664.89)" style="stroke: rgb(68, 68, 68); stroke-opacity: 1; stroke-width: 1px;"/><path class="ytick ticks crisp" d="M80,0h0" transform="translate(0,623.57)" style="stroke: rgb(68, 68, 68); stroke-opacity: 1; stroke-width: 1px;"/><path class="ytick ticks crisp" d="M80,0h0" transform="translate(0,591.02)" style="stroke: rgb(68, 68, 68); stroke-opacity: 1; stroke-width: 1px;"/><path class="ytick ticks crisp" d="M80,0h0" transform="translate(0,564.1700000000001)" style="stroke: rgb(68, 68, 68); stroke-opacity: 1; stroke-width: 1px;"/><path class="ytick ticks crisp" d="M80,0h0" transform="translate(0,541.31)" style="stroke: rgb(68, 68, 68); stroke-opacity: 1; stroke-width: 1px;"/><path class="ytick ticks crisp" d="M80,0h0" transform="translate(0,521.4)" style="stroke: rgb(68, 68, 68); stroke-opacity: 1; stroke-width: 1px;"/><path class="ytick ticks crisp" d="M80,0h0" transform="translate(0,503.78)" style="stroke: rgb(68, 68, 68); stroke-opacity: 1; stroke-width: 1px;"/><path class="ytick ticks crisp" d="M80,0h0" transform="translate(0,487.97)" style="stroke: rgb(68, 68, 68); stroke-opacity: 1; stroke-width: 1px;"/><path class="ytick ticks crisp" d="M80,0h0" transform="translate(0,473.63)" style="stroke: rgb(68, 68, 68); stroke-opacity: 1; stroke-width: 1px;"/><path class="ytick ticks crisp" d="M80,0h0" transform="translate(0,460.52)" style="stroke: rgb(68, 68, 68); stroke-opacity: 1; stroke-width: 1px;"/><path class="ytick ticks crisp" d="M80,0h0" transform="translate(0,448.43)" style="stroke: rgb(68, 68, 68); stroke-opacity: 1; stroke-width: 1px;"/><path class="ytick ticks crisp" d="M80,0h0" transform="translate(0,437.22)" style="stroke: rgb(68, 68, 68); stroke-opacity: 1; stroke-width: 1px;"/><path class="ytick ticks crisp" d="M80,0h0" transform="translate(0,426.77)" style="stroke: rgb(68, 68, 68); stroke-opacity: 1; stroke-width: 1px;"/><path class="ytick ticks crisp" d="M80,0h0" transform="translate(0,416.99)" style="stroke: rgb(68, 68, 68); stroke-opacity: 1; stroke-width: 1px;"/><path class="ytick ticks crisp" d="M80,0h0" transform="translate(0,407.79)" style="stroke: rgb(68, 68, 68); stroke-opacity: 1; stroke-width: 1px;"/><path class="ytick ticks crisp" d="M80,0h0" transform="translate(0,399.11)" style="stroke: rgb(68, 68, 68); stroke-opacity: 1; stroke-width: 1px;"/><path class="ytick ticks crisp" d="M80,0h0" transform="translate(0,390.9)" style="stroke: rgb(68, 68, 68); stroke-opacity: 1; stroke-width: 1px;"/><path class="ytick ticks crisp" d="M80,0h0" transform="translate(0,383.1)" style="stroke: rgb(68, 68, 68); stroke-opacity: 1; stroke-width: 1px;"/><path class="ytick ticks crisp" d="M80,0h0" transform="translate(0,321.28)" style="stroke: rgb(68, 68, 68); stroke-opacity: 1; stroke-width: 1px;"/><path class="ytick ticks crisp" d="M80,0h0" transform="translate(0,277.28999999999996)" style="stroke: rgb(68, 68, 68); stroke-opacity: 1; stroke-width: 1px;"/><path class="ytick ticks crisp" d="M80,0h0" transform="translate(0,243.11)" style="stroke: rgb(68, 68, 68); stroke-opacity: 1; stroke-width: 1px;"/><path class="ytick ticks crisp" d="M80,0h0" transform="translate(0,215.15)" style="stroke: rgb(68, 68, 68); stroke-opacity: 1; stroke-width: 1px;"/><path class="ytick ticks crisp" d="M80,0h0" transform="translate(0,191.5)" style="stroke: rgb(68, 68, 68); stroke-opacity: 1; stroke-width: 1px;"/><path class="ytick ticks crisp" d="M80,0h0" transform="translate(0,171)" style="stroke: rgb(68, 68, 68); stroke-opacity: 1; stroke-width: 1px;"/><path class="ytick ticks crisp" d="M80,0h0" transform="translate(0,152.91)" style="stroke: rgb(68, 68, 68); stroke-opacity: 1; stroke-width: 1px;"/><path class="ytick ticks crisp" d="M80,0h0" transform="translate(0,136.73)" style="stroke: rgb(68, 68, 68); stroke-opacity: 1; stroke-width: 1px;"/><path class="ytick ticks crisp" d="M80,0h0" transform="translate(0,122.08)" style="stroke: rgb(68, 68, 68); stroke-opacity: 1; stroke-width: 1px;"/><path class="ytick ticks crisp" d="M80,0h0" transform="translate(0,108.71000000000001)" style="stroke: rgb(68, 68, 68); stroke-opacity: 1; stroke-width: 1px;"/><g class="ytick"><text text-anchor="middle" x="73" y="4.199999999999999" transform="translate(0,1307.87) rotate(90,73,-1.8000000000000007)" style="font-family: 'Open Sans', verdana, arial, sans-serif; font-size: 12px; fill: rgb(68, 68, 68); fill-opacity: 1; white-space: pre; opacity: 1;">2020</text></g><g class="ytick"><text text-anchor="middle" x="73" y="4.199999999999999" style="font-family: 'Open Sans', verdana, arial, sans-serif; font-size: 12px; fill: rgb(68, 68, 68); fill-opacity: 1; white-space: pre; opacity: 1;" transform="translate(0,1138.65) rotate(90,73,-1.8000000000000007)">2010</text></g><g class="ytick"><text text-anchor="middle" x="73" y="4.199999999999999" style="font-family: 'Open Sans', verdana, arial, sans-serif; font-size: 12px; fill: rgb(68, 68, 68); fill-opacity: 1; white-space: pre; opacity: 1;" transform="translate(0,1059.97) rotate(90,73,-1.8000000000000007)">2000</text></g><g class="ytick"><text text-anchor="middle" x="73" y="4.199999999999999" style="font-family: 'Open Sans', verdana, arial, sans-serif; font-size: 12px; fill: rgb(68, 68, 68); fill-opacity: 1; white-space: pre; opacity: 1;" transform="translate(0,812.07) rotate(90,73,-1.8000000000000007)">1900</text></g><g class="ytick"><text text-anchor="middle" x="73" y="4.199999999999999" style="font-family: 'Open Sans', verdana, arial, sans-serif; font-size: 12px; fill: rgb(68, 68, 68); fill-opacity: 1; white-space: pre; opacity: 1;" transform="translate(0,721.53) rotate(90,73,-1.8000000000000007)">1800</text></g><g class="ytick"><text text-anchor="middle" x="73" y="4.199999999999999" style="font-family: 'Open Sans', verdana, arial, sans-serif; font-size: 12px; fill: rgb(68, 68, 68); fill-opacity: 1; white-space: pre; opacity: 1;" transform="translate(0,591.02) rotate(90,73,-1.8000000000000007)">1500</text></g><g class="ytick"><text text-anchor="middle" x="73" y="4.199999999999999" style="font-family: 'Open Sans', verdana, arial, sans-serif; font-size: 12px; fill: rgb(68, 68, 68); fill-opacity: 1; white-space: pre; opacity: 1;" transform="translate(0,487.97) rotate(90,73,-1.8000000000000007)">1000</text></g><g class="ytick"><text text-anchor="middle" x="73" y="4.199999999999999" style="font-family: 'Open Sans', verdana, arial, sans-serif; font-size: 12px; fill: rgb(68, 68, 68); fill-opacity: 1; white-space: pre; opacity: 1;" transform="translate(0,383.1) rotate(90,73,-1.8000000000000007)">0</text></g><g class="ytick"><text text-anchor="middle" x="73" y="4.199999999999999" style="font-family: 'Open Sans', verdana, arial, sans-serif; font-size: 12px; fill: rgb(68, 68, 68); fill-opacity: 1; white-space: pre; opacity: 1;" transform="translate(0,277.28999999999996) rotate(90,73,-1.8000000000000007)">2000 BC</text></g></g><g class="overaxes-above"/></g></g><g class="polarlayer"/><g class="smithlayer"/><g class="ternarylayer"/><g class="geolayer"/><g class="funnelarealayer"/><g class="pielayer"/><g class="iciclelayer"/><g class="treemaplayer"/><g class="sunburstlayer"/><g class="glimages"/><defs id="topdefs-57c726"><g class="clips"/></defs><g class="layer-above"><g class="imagelayer"/><g class="shapelayer"/></g><g class="infolayer"><g class="g-gtitle"/><g class="g-ytitle"/></g></svg>