<?xml version="1.0" encoding="UTF-8" standalone="no"?>
<!DOCTYPE svg PUBLIC "-//W3C//DTD SVG 1.1//EN" "http://www.w3.org/Graphics/SVG/1.1/DTD/svg11.dtd">
<svg width="100%" height="100%" viewBox="0 0 480 90" version="1.1" xmlns="http://www.w3.org/2000/svg" xmlns:xlink="http://www.w3.org/1999/xlink" xml:space="preserve" xmlns:serif="http://www.serif.com/" style="fill-rule:evenodd;clip-rule:evenodd;stroke-linejoin:round;stroke-miterlimit:2;">
    <g transform="matrix(1,0,0,1,-195.362,-266.087)">
        <g transform="matrix(1.25,0,0,1.24706,199.601,346.069)">
            <path d="M45.44,0L26.72,-56.96L21.12,-56.96L2.4,0L8.8,0L24,-48.32L39.04,0L45.44,0Z" style="fill:rgb(137,137,137);"/>
            <rect x="56.08" y="-56.96" width="6.08" height="56.96" style="fill:rgb(137,137,137);"/>
            <path d="M108.96,-9.04L108.96,-14.24L102,-14.24L102,-30.4L96.32,-30.4L96.32,-14.24L79.76,-14.24L100.32,-56.96L94.16,-56.96L73.6,-14.24L73.6,-9.04L96.32,-9.04L96.32,0L102,0L102,-9.04L108.96,-9.04Z" style="fill:rgb(137,137,137);"/>
        </g>
        <g transform="matrix(1.25,0,0,1.24706,345.533,306.069)">
            <path d="M19.152,-7.056C19.152,-9.18 18.36,-10.908 16.992,-12.096C15.84,-13.14 14.724,-13.572 12.348,-13.932L9.36,-14.4C8.028,-14.616 6.804,-15.048 6.012,-15.732C5.22,-16.416 4.86,-17.46 4.86,-18.72C4.86,-21.6 6.84,-23.508 10.296,-23.508C12.96,-23.508 14.724,-22.752 16.272,-21.276L18.036,-23.04C15.84,-24.984 13.68,-25.848 10.404,-25.848C5.328,-25.848 2.196,-23.004 2.196,-18.648C2.196,-16.56 2.88,-14.976 4.176,-13.824C5.328,-12.816 6.84,-12.204 8.856,-11.88L11.844,-11.448C13.68,-11.16 14.4,-10.908 15.192,-10.188C16.056,-9.432 16.452,-8.352 16.452,-6.984C16.452,-3.96 14.148,-2.232 10.368,-2.232C7.488,-2.232 5.508,-2.88 3.384,-5.004L1.548,-3.168C3.924,-0.756 6.48,0.216 10.296,0.216C15.66,0.216 19.152,-2.556 19.152,-7.056Z" style="fill:rgb(137,137,137);"/>
            <path d="M42.408,-8.46L42.408,-25.632L39.672,-25.632L39.672,-8.676C39.672,-4.788 37.188,-2.232 33.444,-2.232C29.7,-2.232 27.252,-4.788 27.252,-8.676L27.252,-25.632L24.516,-25.632L24.516,-8.46C24.516,-3.348 28.26,0.216 33.444,0.216C38.628,0.216 42.408,-3.348 42.408,-8.46Z" style="fill:rgb(137,137,137);"/>
            <path d="M64.908,-7.056C64.908,-9.18 64.116,-10.908 62.748,-12.096C61.596,-13.14 60.48,-13.572 58.104,-13.932L55.116,-14.4C53.784,-14.616 52.56,-15.048 51.768,-15.732C50.976,-16.416 50.616,-17.46 50.616,-18.72C50.616,-21.6 52.596,-23.508 56.052,-23.508C58.716,-23.508 60.48,-22.752 62.028,-21.276L63.792,-23.04C61.596,-24.984 59.436,-25.848 56.16,-25.848C51.084,-25.848 47.952,-23.004 47.952,-18.648C47.952,-16.56 48.636,-14.976 49.932,-13.824C51.084,-12.816 52.596,-12.204 54.612,-11.88L57.6,-11.448C59.436,-11.16 60.156,-10.908 60.948,-10.188C61.812,-9.432 62.208,-8.352 62.208,-6.984C62.208,-3.96 59.904,-2.232 56.124,-2.232C53.244,-2.232 51.264,-2.88 49.14,-5.004L47.304,-3.168C49.68,-0.756 52.236,0.216 56.052,0.216C61.416,0.216 64.908,-2.556 64.908,-7.056Z" style="fill:rgb(137,137,137);"/>
            <path d="M85.212,-23.184L85.212,-25.632L67.644,-25.632L67.644,-23.184L75.06,-23.184L75.06,0L77.796,0L77.796,-23.184L85.212,-23.184Z" style="fill:rgb(137,137,137);"/>
            <path d="M106.56,0L98.136,-25.632L95.616,-25.632L87.192,0L90.072,0L96.912,-21.744L103.68,0L106.56,0Z" style="fill:rgb(137,137,137);"/>
            <rect x="111.348" y="-25.632" width="2.736" height="25.632" style="fill:rgb(137,137,137);"/>
            <path d="M140.436,0L140.436,-25.632L137.7,-25.632L137.7,-5.148L124.092,-25.632L121.5,-25.632L121.5,0L124.236,0L124.236,-20.556L137.844,0L140.436,0Z" style="fill:rgb(137,137,137);"/>
            <path d="M164.592,0L156.168,-25.632L153.648,-25.632L145.224,0L148.104,0L154.944,-21.744L161.712,0L164.592,0Z" style="fill:rgb(137,137,137);"/>
            <path d="M169.38,-2.448L169.38,0L179.352,0C183.888,0 186.984,-2.448 186.984,-7.092C186.984,-10.152 185.256,-12.276 182.808,-13.176C184.968,-13.968 186.588,-16.092 186.588,-18.792C186.588,-23.076 183.492,-25.632 179.028,-25.632L169.38,-25.632L169.38,-23.184L178.812,-23.184C181.656,-23.184 183.852,-21.816 183.852,-18.756C183.852,-15.696 181.656,-14.292 178.812,-14.292L169.38,-14.292L169.38,-11.844L179.1,-11.844C182.268,-11.844 184.248,-10.044 184.248,-7.164C184.248,-4.284 181.332,-2.448 179.1,-2.448L169.38,-2.448Z" style="fill:rgb(137,137,137);"/>
            <path d="M209.268,0L209.268,-2.448L196.164,-2.448L196.164,-25.632L193.428,-25.632L193.428,0L209.268,0Z" style="fill:rgb(137,137,137);"/>
            <path d="M213.696,-25.632L213.696,-23.184L229.608,-23.184L229.608,-25.632L213.696,-25.632ZM213.696,-14.148L213.696,-11.7L227.664,-11.7L227.664,-14.148L213.696,-14.148ZM213.696,-2.448L213.696,0L229.608,0L229.608,-2.448L213.696,-2.448Z" style="fill:rgb(137,137,137);"/>
        </g>
        <g transform="matrix(1.25,0,0,1.24706,343.448,348.069)">
            <path d="M20.592,-7.416L17.856,-7.416C17.172,-4.248 14.904,-2.232 11.7,-2.232C9.972,-2.232 8.46,-2.844 7.272,-4.032C5.652,-5.688 5.472,-7.56 5.472,-12.816C5.472,-18.072 5.652,-19.944 7.272,-21.6C8.46,-22.788 9.972,-23.4 11.7,-23.4C14.904,-23.4 17.1,-21.384 17.784,-18.216L20.592,-18.216C19.692,-23.004 16.344,-25.848 11.7,-25.848C9.036,-25.848 6.876,-24.912 5.292,-23.328C2.88,-20.916 2.736,-18.684 2.736,-12.816C2.736,-6.948 2.88,-4.716 5.292,-2.304C6.876,-0.72 9.036,0.216 11.7,0.216C16.308,0.216 19.692,-2.628 20.592,-7.416Z" style="fill:rgb(137,137,137);"/>
            <path d="M43.056,-12.816C43.056,-18.684 42.876,-20.916 40.464,-23.328C38.88,-24.912 36.756,-25.848 34.092,-25.848C31.428,-25.848 29.268,-24.912 27.684,-23.328C25.272,-20.916 25.128,-18.684 25.128,-12.816C25.128,-6.948 25.272,-4.716 27.684,-2.304C29.268,-0.72 31.428,0.216 34.092,0.216C36.756,0.216 38.88,-0.72 40.464,-2.304C42.876,-4.716 43.056,-6.948 43.056,-12.816ZM40.32,-12.816C40.32,-7.56 40.14,-5.688 38.52,-4.032C37.332,-2.844 35.82,-2.232 34.092,-2.232C32.364,-2.232 30.852,-2.844 29.664,-4.032C28.044,-5.688 27.864,-7.56 27.864,-12.816C27.864,-18.072 28.044,-19.944 29.664,-21.6C30.852,-22.788 32.364,-23.4 34.092,-23.4C35.82,-23.4 37.332,-22.788 38.52,-21.6C40.14,-19.944 40.32,-18.072 40.32,-12.816Z" style="fill:rgb(137,137,137);"/>
            <path d="M68.436,0L68.436,-25.632L65.7,-25.632L65.7,-5.148L52.092,-25.632L49.5,-25.632L49.5,0L52.236,0L52.236,-20.556L65.844,0L68.436,0Z" style="fill:rgb(137,137,137);"/>
            <path d="M91.296,-7.056C91.296,-9.18 90.504,-10.908 89.136,-12.096C87.984,-13.14 86.868,-13.572 84.492,-13.932L81.504,-14.4C80.172,-14.616 78.948,-15.048 78.156,-15.732C77.364,-16.416 77.004,-17.46 77.004,-18.72C77.004,-21.6 78.984,-23.508 82.44,-23.508C85.104,-23.508 86.868,-22.752 88.416,-21.276L90.18,-23.04C87.984,-24.984 85.824,-25.848 82.548,-25.848C77.472,-25.848 74.34,-23.004 74.34,-18.648C74.34,-16.56 75.024,-14.976 76.32,-13.824C77.472,-12.816 78.984,-12.204 81,-11.88L83.988,-11.448C85.824,-11.16 86.544,-10.908 87.336,-10.188C88.2,-9.432 88.596,-8.352 88.596,-6.984C88.596,-3.96 86.292,-2.232 82.512,-2.232C79.632,-2.232 77.652,-2.88 75.528,-5.004L73.692,-3.168C76.068,-0.756 78.624,0.216 82.44,0.216C87.804,0.216 91.296,-2.556 91.296,-7.056Z" style="fill:rgb(137,137,137);"/>
            <path d="M111.6,-23.184L111.6,-25.632L94.032,-25.632L94.032,-23.184L101.448,-23.184L101.448,0L104.184,0L104.184,-23.184L111.6,-23.184Z" style="fill:rgb(137,137,137);"/>
            <path d="M116.388,-13.788L116.388,0L119.124,0L119.124,-11.376L125.28,-11.376L131.112,0L134.316,0L128.232,-11.628C131.544,-12.312 133.812,-14.76 133.812,-18.504C133.812,-22.932 130.68,-25.632 126.216,-25.632L116.388,-25.632L116.388,-23.184L125.964,-23.184C128.952,-23.184 131.076,-21.6 131.076,-18.468C131.076,-15.336 128.952,-13.788 125.964,-13.788L116.388,-13.788Z" style="fill:rgb(137,137,137);"/>
            <path d="M157.536,-8.46L157.536,-25.632L154.8,-25.632L154.8,-8.676C154.8,-4.788 152.316,-2.232 148.572,-2.232C144.828,-2.232 142.38,-4.788 142.38,-8.676L142.38,-25.632L139.644,-25.632L139.644,-8.46C139.644,-3.348 143.388,0.216 148.572,0.216C153.756,0.216 157.536,-3.348 157.536,-8.46Z" style="fill:rgb(137,137,137);"/>
            <path d="M181.476,-7.416L178.74,-7.416C178.056,-4.248 175.788,-2.232 172.584,-2.232C170.856,-2.232 169.344,-2.844 168.156,-4.032C166.536,-5.688 166.356,-7.56 166.356,-12.816C166.356,-18.072 166.536,-19.944 168.156,-21.6C169.344,-22.788 170.856,-23.4 172.584,-23.4C175.788,-23.4 177.984,-21.384 178.668,-18.216L181.476,-18.216C180.576,-23.004 177.228,-25.848 172.584,-25.848C169.92,-25.848 167.76,-24.912 166.176,-23.328C163.764,-20.916 163.62,-18.684 163.62,-12.816C163.62,-6.948 163.764,-4.716 166.176,-2.304C167.76,-0.72 169.92,0.216 172.584,0.216C177.192,0.216 180.576,-2.628 181.476,-7.416Z" style="fill:rgb(137,137,137);"/>
            <path d="M202.464,-23.184L202.464,-25.632L184.896,-25.632L184.896,-23.184L192.312,-23.184L192.312,0L195.048,0L195.048,-23.184L202.464,-23.184Z" style="fill:rgb(137,137,137);"/>
            <rect x="207.252" y="-25.632" width="2.736" height="25.632" style="fill:rgb(137,137,137);"/>
            <path d="M234.36,-12.816C234.36,-18.684 234.18,-20.916 231.768,-23.328C230.184,-24.912 228.06,-25.848 225.396,-25.848C222.732,-25.848 220.572,-24.912 218.988,-23.328C216.576,-20.916 216.432,-18.684 216.432,-12.816C216.432,-6.948 216.576,-4.716 218.988,-2.304C220.572,-0.72 222.732,0.216 225.396,0.216C228.06,0.216 230.184,-0.72 231.768,-2.304C234.18,-4.716 234.36,-6.948 234.36,-12.816ZM231.624,-12.816C231.624,-7.56 231.444,-5.688 229.824,-4.032C228.636,-2.844 227.124,-2.232 225.396,-2.232C223.668,-2.232 222.156,-2.844 220.968,-4.032C219.348,-5.688 219.168,-7.56 219.168,-12.816C219.168,-18.072 219.348,-19.944 220.968,-21.6C222.156,-22.788 223.668,-23.4 225.396,-23.4C227.124,-23.4 228.636,-22.788 229.824,-21.6C231.444,-19.944 231.624,-18.072 231.624,-12.816Z" style="fill:rgb(137,137,137);"/>
            <path d="M259.74,0L259.74,-25.632L257.004,-25.632L257.004,-5.148L243.396,-25.632L240.804,-25.632L240.804,0L243.54,0L243.54,-20.556L257.148,0L259.74,0Z" style="fill:rgb(137,137,137);"/>
        </g>
    </g>
</svg>
